<svg width="300" height="300" viewBox="0 0 300 300" fill="none" xmlns="http://www.w3.org/2000/svg">
<g clip-path="url(#clip0_4_15)">
<path fill-rule="evenodd" clip-rule="evenodd" d="M68.3333 21.6667C42.5594 21.6667 21.6667 42.5594 21.6667 68.3333C21.6667 94.1074 42.5593 115 68.3333 115C94.1074 115 115 94.1074 115 68.3333C115 42.5593 94.1074 21.6667 68.3333 21.6667ZM10 68.3333C10 36.116 36.116 10 68.3333 10C100.551 10 126.667 36.116 126.667 68.3333C126.667 100.551 100.551 126.667 68.3333 126.667C36.116 126.667 10 100.551 10 68.3333Z" fill="#2088FF"/>
<path fill-rule="evenodd" clip-rule="evenodd" d="M144.167 126.667C128.058 126.667 115 139.725 115 155.833C115 171.942 128.058 185 144.167 185C160.275 185 173.333 171.942 173.333 155.833C173.333 139.725 160.275 126.667 144.167 126.667ZM103.333 155.833C103.333 133.282 121.615 115 144.167 115C166.718 115 185 133.282 185 155.833C185 178.385 166.718 196.667 144.167 196.667C121.615 196.667 103.333 178.385 103.333 155.833Z" fill="#2088FF"/>
<path fill-rule="evenodd" clip-rule="evenodd" d="M144.167 220C128.058 220 115 233.058 115 249.167C115 265.275 128.058 278.333 144.167 278.333C160.275 278.333 173.333 265.275 173.333 249.167C173.333 233.058 160.275 220 144.167 220ZM103.333 249.167C103.333 226.615 121.615 208.333 144.167 208.333C166.718 208.333 185 226.615 185 249.167C185 271.718 166.718 290 144.167 290C121.615 290 103.333 271.718 103.333 249.167Z" fill="#2088FF"/>
<path fill-rule="evenodd" clip-rule="evenodd" d="M249.167 220C233.058 220 220 233.058 220 249.167C220 265.275 233.058 278.333 249.167 278.333C265.275 278.333 278.333 265.275 278.333 249.167C278.333 233.058 265.275 220 249.167 220ZM208.333 249.167C208.333 226.615 226.615 208.333 249.167 208.333C271.718 208.333 290 226.615 290 249.167C290 271.718 271.718 290 249.167 290C226.615 290 208.333 271.718 208.333 249.167Z" fill="#79B8FF"/>
<path fill-rule="evenodd" clip-rule="evenodd" d="M160.174 143.585C162.45 145.864 162.448 149.558 160.168 151.834L142.265 169.714C139.989 171.987 136.303 171.989 134.025 169.719L125.329 161.054C123.047 158.78 123.041 155.087 125.315 152.804C127.589 150.522 131.282 150.516 133.564 152.79L138.138 157.347L151.924 143.579C154.204 141.303 157.897 141.305 160.174 143.585Z" fill="#2088FF"/>
<path fill-rule="evenodd" clip-rule="evenodd" d="M249.167 126.667C233.058 126.667 220 139.725 220 155.833C220 171.942 233.058 185 249.167 185C265.275 185 278.333 171.942 278.333 155.833C278.333 139.725 265.275 126.667 249.167 126.667ZM208.333 155.833C208.333 133.282 226.615 115 249.167 115C271.718 115 290 133.282 290 155.833C290 178.385 271.718 196.667 249.167 196.667C226.615 196.667 208.333 178.385 208.333 155.833Z" fill="#2088FF"/>
<path fill-rule="evenodd" clip-rule="evenodd" d="M265.174 143.585C267.45 145.864 267.448 149.558 265.168 151.834L247.265 169.714C244.989 171.987 241.303 171.989 239.025 169.719L230.329 161.054C228.047 158.78 228.041 155.087 230.315 152.804C232.589 150.522 236.282 150.516 238.564 152.79L243.138 157.347L256.924 143.579C259.204 141.303 262.897 141.305 265.174 143.585Z" fill="#2088FF"/>
<path fill-rule="evenodd" clip-rule="evenodd" d="M62.5 115C65.7217 115 68.3333 117.612 68.3333 120.833V208.333C68.3333 227.64 84.2319 243.333 103.333 243.333H109.167C112.388 243.333 115 245.945 115 249.167C115 252.388 112.388 255 109.167 255H103.333C77.8354 255 56.6667 234.13 56.6667 208.333V120.833C56.6667 117.612 59.2783 115 62.5 115Z" fill="#2088FF"/>
<path d="M108.869 161.667C112.091 161.667 114.702 159.055 114.702 155.833C114.702 152.612 112.091 150 108.869 150V161.667ZM56.6667 121.039C56.6667 143.477 74.8567 161.667 97.2947 161.667V150C81.2997 150 68.3333 137.034 68.3333 121.039H56.6667ZM97.2947 161.667H108.869V150H97.2947V161.667Z" fill="#2088FF"/>
<path fill-rule="evenodd" clip-rule="evenodd" d="M173.652 155.833C173.652 152.612 176.264 150 179.486 150H214.163C217.384 150 219.996 152.612 219.996 155.833C219.996 159.055 217.384 161.667 214.163 161.667H179.486C176.264 161.667 173.652 159.055 173.652 155.833Z" fill="#2088FF"/>
<path fill-rule="evenodd" clip-rule="evenodd" d="M132.5 243.333C135.719 243.333 138.333 245.948 138.333 249.167C138.333 252.39 135.719 255 132.5 255C129.281 255 126.667 252.39 126.667 249.167C126.667 245.948 129.281 243.333 132.5 243.333Z" fill="#79B8FF"/>
<path fill-rule="evenodd" clip-rule="evenodd" d="M155.833 243.333C159.052 243.333 161.667 245.948 161.667 249.167C161.667 252.39 159.052 255 155.833 255C152.614 255 150 252.39 150 249.167C150 245.948 152.614 243.333 155.833 243.333Z" fill="#79B8FF"/>
<path fill-rule="evenodd" clip-rule="evenodd" d="M214.192 249.017C214.297 252.237 211.771 254.932 208.551 255.037L202.645 255.23C199.425 255.335 196.729 252.809 196.624 249.589C196.519 246.369 199.045 243.674 202.264 243.569L208.171 243.377C211.391 243.272 214.087 245.797 214.192 249.017Z" fill="#79B8FF"/>
</g>
<defs>
<clipPath id="clip0_4_15">
<rect width="280" height="280" fill="white" transform="translate(10 10)"/>
</clipPath>
</defs>
</svg>
