<svg width="300" height="300" viewBox="0 0 300 300" fill="none" xmlns="http://www.w3.org/2000/svg">
<path d="M148.384 182.539C166.649 182.539 181.457 167.731 181.457 149.466C181.457 131.2 166.649 116.393 148.384 116.393C130.118 116.393 115.311 131.2 115.311 149.466C115.311 167.731 130.118 182.539 148.384 182.539Z" fill="#343434"/>
<path d="M13.3016 114.4C13.3016 114.798 12.9027 115.595 12.9027 115.994C12.9027 119.58 15.6919 122.768 19.6766 122.768H75.8616C78.6508 122.768 80.6432 121.174 81.8388 118.783C93.3954 93.2807 118.898 76.1459 147.985 76.1459C188.23 76.1459 220.906 108.821 220.906 149.067C220.906 189.313 188.23 221.988 147.985 221.988C118.498 221.988 93.3943 204.455 81.8388 179.749C80.6432 176.96 78.6508 175.366 75.8605 175.366H19.6788C16.0918 175.366 12.9038 178.155 12.9038 182.141C12.9038 182.539 12.9038 183.335 13.3027 183.734C28.843 244.302 83.4334 288.931 148.385 288.931C225.29 288.931 287.85 226.37 287.85 149.466C287.849 72.56 225.288 10 148.384 10C83.4334 10 28.8419 54.6295 13.3016 114.4Z" fill="#343434"/>
</svg>
