<svg width="300" height="300" viewBox="0 0 300 300" fill="none" xmlns="http://www.w3.org/2000/svg">
<g clip-path="url(#clip0_4_17)">
<path d="M14.9818 187.093C11.6807 175.071 10 162.584 10 150.008C10 92.5953 46.0573 40.1 99.7307 19.3987L106.768 37.6117C60.5672 55.4349 29.5367 100.6 29.5367 150.008C29.5367 160.845 30.9771 171.578 33.8131 181.921L14.9818 187.093Z" fill="#58D09E"/>
<path d="M98.7927 19.8458C110.404 15.3062 122.646 12.3295 135.154 11.0148C192.252 5.01362 248.229 35.3862 274.427 86.6016L257.049 95.5042C234.495 51.4195 186.333 25.28 137.196 30.4445C126.418 31.5774 115.895 34.1318 105.905 38.0334L98.7927 19.8458Z" fill="#58D09E"/>
<path d="M214.082 251.8C252.208 227.497 273.443 184.369 269.497 139.27C268.099 123.291 263.664 108.029 256.338 93.9389L273.649 84.9081C282.17 101.289 287.331 119.002 288.955 137.568C293.539 189.961 268.88 240.047 224.582 268.279L214.082 251.8Z" fill="url(#paint0_linear_4_17)"/>
<path d="M108.449 121.122C119.778 121.122 129.006 127.163 133.748 137.7L134.123 138.525L153.149 132.064L152.744 131.09C145.377 113.147 128.406 101.994 108.449 101.994C94.4189 101.994 83.0154 106.492 73.5922 115.725C64.2288 124.899 59.4873 136.442 59.4873 150.037C59.4873 163.514 64.2288 174.996 73.5922 184.17C83.0154 193.404 94.4189 197.901 108.449 197.901C128.406 197.901 145.377 186.748 152.744 168.82L153.149 167.846L134.093 161.37L133.733 162.224C129.486 172.583 120.033 178.774 108.449 178.774C100.556 178.774 93.8939 176.016 88.6119 170.589C83.2703 165.087 80.5694 158.177 80.5694 150.053C80.5694 141.868 83.2102 135.092 88.6119 129.336C93.8788 123.88 100.556 121.122 108.449 121.122Z" fill="#1B1E2E"/>
<path d="M227.619 103.763L200.505 172.373L173.211 103.763H150.883L189.161 197.406L161.927 263.452L181.449 267.335L248.716 103.763H227.619Z" fill="#1B1E2E"/>
<path d="M165.42 254.938L160.663 266.451C159.718 268.729 157.557 270.273 155.126 270.378C153.521 270.438 151.901 270.483 150.265 270.483C94.2806 270.453 44.7488 230.984 32.4745 176.6L13.418 180.902C20.3053 211.407 37.5913 239.094 62.0946 258.881C86.8833 278.892 118.109 289.94 150.055 290C150.1 290 150.34 290 150.34 290C152.216 290 154.076 289.955 155.937 289.88C165.96 289.46 174.918 283.18 178.744 273.871L184.956 258.821L165.42 254.938Z" fill="url(#paint1_linear_4_17)"/>
</g>
<defs>
<linearGradient id="paint0_linear_4_17" x1="257.051" y1="125.698" x2="195.959" y2="193.774" gradientUnits="userSpaceOnUse">
<stop offset="0.0939" stop-color="#58D09E"/>
<stop offset="0.9883" stop-color="#58D09E" stop-opacity="0"/>
</linearGradient>
<linearGradient id="paint1_linear_4_17" x1="8.50424" y1="224.738" x2="204.474" y2="276.899" gradientUnits="userSpaceOnUse">
<stop offset="0.0774" stop-color="#58D09E"/>
<stop offset="0.7617" stop-color="#1B1E2E"/>
</linearGradient>
<clipPath id="clip0_4_17">
<rect width="280" height="280" fill="white" transform="translate(10 10)"/>
</clipPath>
</defs>
</svg>
