<svg width="300" height="300" viewBox="0 0 300 300" fill="none" xmlns="http://www.w3.org/2000/svg">
<path fill-rule="evenodd" clip-rule="evenodd" d="M52.2374 222.317V204.421C52.2374 202.069 53.7074 200.18 56.142 200.18H56.8158C59.2494 200.18 60.7128 202.072 60.7128 204.421V242.097C60.7128 251.285 56.1738 258.595 48.2638 263.253C44.6403 265.399 40.5043 266.527 36.2927 266.517H34.6116C25.4219 266.517 18.1211 261.975 13.4563 254.071C11.3065 250.448 10.1786 246.31 10.1925 242.097V240.418C10.1925 231.228 14.7338 223.921 22.6372 219.255C26.26 217.104 30.3983 215.976 34.6116 215.991H36.2927C42.5117 215.991 47.788 218.401 52.2374 222.317ZM18.6669 241.256C18.6669 247.893 21.8836 252.883 27.6991 256.066C30.0506 257.352 32.6034 258.043 35.2864 258.043C41.8008 258.043 46.633 254.97 49.9656 249.45C51.5155 246.881 52.2374 244.072 52.2374 241.085C52.2374 235.331 49.5139 230.842 44.8775 227.507C42.0666 225.485 38.9024 224.472 35.4516 224.472C28.3509 224.472 23.2409 228.059 20.1741 234.431C19.1394 236.586 18.6669 238.873 18.6669 241.256ZM90.115 215.991H91.2897C101.109 215.991 108.578 220.754 113.31 229.326C115.202 232.755 116.215 236.497 116.215 240.418V242.097C116.215 251.285 111.685 258.605 103.763 263.254C100.095 265.405 96.0442 266.517 91.7939 266.517H90.115C80.9253 266.517 73.6224 261.975 68.9597 254.071C66.8089 250.448 65.6799 246.31 65.6927 242.097V240.418C65.6927 231.227 70.2525 223.944 78.1363 219.258C81.8014 217.08 85.8559 215.991 90.115 215.991ZM74.1681 241.256C74.1681 247.698 77.3291 252.438 82.7705 255.77C85.3255 257.334 88.1397 258.043 91.1245 258.043C97.4902 258.043 102.195 254.815 105.47 249.443C107.032 246.881 107.739 244.067 107.739 241.085C107.739 235.094 104.853 230.518 99.9205 227.202C97.2178 225.383 94.2089 224.472 90.9539 224.472C83.8533 224.472 78.7433 228.059 75.6775 234.431C74.6406 236.586 74.1681 238.873 74.1681 241.256ZM151.448 225.149C150.168 224.549 147.773 224.35 146.391 224.298C139.31 224.031 134.187 228.019 131.181 234.265C130.143 236.42 129.669 238.7 129.669 241.085C129.669 248.344 133.481 253.426 139.96 256.525C142.327 257.656 145.383 257.87 147.97 257.87C150.245 257.87 153.461 256.477 155.48 255.518L155.83 255.351H157.397L157.57 255.386C159.497 255.788 160.952 257.01 160.952 259.083V259.922C160.952 265.082 151.521 266.264 147.923 266.515C135.225 267.394 125.728 260.42 122.107 248.308C121.478 246.204 121.195 244.115 121.195 241.923V240.247C121.195 231.056 125.756 223.776 133.639 219.094C137.304 216.917 141.357 215.823 145.615 215.823H147.295C151.812 215.823 155.973 217.106 159.703 219.654L160.009 219.866L160.203 220.185C160.605 220.852 160.952 221.625 160.952 222.419V223.257C160.952 225.421 159.333 226.585 157.38 226.961L157.218 226.989H156.717C155.452 226.989 152.577 225.68 151.448 225.149ZM178.938 230.887C182.231 227.591 185.534 224.301 188.875 221.059C189.806 220.155 193.331 216.326 194.719 216.326H196.237L196.41 216.362C198.344 216.764 199.792 217.988 199.792 220.066V220.904C199.792 222.321 198.132 223.968 197.216 224.939C195.269 227.002 193.22 228.999 191.227 231.02L180.987 241.415C185.396 245.834 189.8 250.256 194.173 254.708C195.386 255.937 196.59 257.175 197.784 258.423C198.205 258.866 198.826 259.417 199.179 260.03C199.559 260.606 199.792 261.254 199.792 261.947V262.822L199.743 263.024C199.267 264.958 198.04 266.517 195.897 266.517H195.222C193.82 266.517 192.236 264.932 191.276 264.025C189.296 262.159 187.385 260.197 185.445 258.29L178.938 251.903V262.112C178.938 264.463 177.466 266.353 175.035 266.353H174.368C171.933 266.353 170.463 264.463 170.463 262.112V204.585C170.463 202.233 171.934 200.352 174.368 200.352H175.035C177.466 200.352 178.938 202.233 178.938 204.585V230.887ZM284.57 216.326H285.412C287.954 216.326 289.65 218.039 289.65 220.567C289.65 224.076 286.295 224.974 283.394 224.974C279.588 224.974 275.953 227.278 273.329 229.863C270.058 233.088 268.626 237.219 268.626 241.76V262.278C268.626 264.63 267.157 266.517 264.721 266.517H264.052C261.616 266.517 260.148 264.631 260.148 262.278V240.582C260.148 232.251 264.204 225.45 270.965 220.681C275.003 217.831 279.627 216.327 284.57 216.327V216.326ZM224.332 256.988C227.417 258.065 230.933 257.911 234.097 257.36C235.716 256.672 239.855 254.866 241.377 255.13L241.615 255.171L241.833 255.278C242.763 255.729 243.65 256.366 244.125 257.312C245.234 259.53 244.701 261.759 242.523 263.017L241.797 263.436C233.758 268.076 225.207 267.433 217.193 263.1C213.362 261.028 210.431 257.953 208.268 254.205L207.763 253.329C202.602 244.391 203.298 234.989 209.119 226.49C211.129 223.552 213.755 221.282 216.825 219.507L217.986 218.837C225.557 214.466 233.672 214.766 241.447 218.601C245.629 220.664 249.016 223.739 251.35 227.782L251.77 228.511C253.465 231.449 251.269 234.008 249.002 235.758C246.37 237.788 243.714 240.231 241.191 242.408C235.567 247.263 229.952 252.129 224.332 256.988ZM217.053 251.875C223.342 246.483 229.634 241.086 235.906 235.67C238.05 233.822 240.401 231.904 242.527 229.96C240.821 227.81 237.97 226.26 235.549 225.336C230.66 223.473 225.84 224.099 221.356 226.686C215.488 230.075 212.989 235.47 213.208 242.185C213.295 244.83 214.006 247.378 215.41 249.628C215.904 250.421 216.456 251.166 217.053 251.875ZM171.315 82.0412H196.325V107.608H208.97C214.81 107.608 220.816 106.567 226.346 104.694C229.064 103.772 232.113 102.49 234.794 100.877C231.263 96.2677 229.461 90.4478 228.932 84.7111C228.21 76.9072 229.785 66.7506 235.065 60.6431L237.695 57.6025L240.827 60.1214C248.714 66.4575 255.348 75.3125 256.517 85.4067C266.014 82.6133 277.165 83.2739 285.535 88.105L288.97 90.0869L287.163 93.6153C280.083 107.432 265.281 111.712 250.811 110.955C229.158 164.886 182.016 190.419 124.858 190.419C95.3267 190.419 68.2345 179.38 52.8061 153.18L52.5534 152.753L50.3058 148.179C45.0908 136.647 43.3583 124.013 44.533 111.389L44.8863 107.608H66.2734V82.0412H91.2821V57.0316H141.303V32.0219H171.315V82.0412Z" fill="#364548"/>
<path fill-rule="evenodd" clip-rule="evenodd" d="M252.342 91.5C254.019 78.4669 244.266 68.2305 238.217 63.3698C231.247 71.4286 230.164 92.5489 241.099 101.441C234.996 106.862 222.137 111.775 208.969 111.775H48.6859C47.4062 125.52 49.819 138.178 55.3304 149.012L57.1537 152.347C58.3082 154.306 59.5697 156.198 60.9326 158.018C67.5224 158.441 73.5982 158.586 79.1567 158.464H79.1588C90.0821 158.223 98.9951 156.932 105.75 154.592C106.228 154.443 106.744 154.486 107.191 154.712C107.637 154.937 107.978 155.328 108.142 155.8C108.306 156.273 108.279 156.79 108.068 157.244C107.857 157.697 107.478 158.051 107.011 158.23C106.112 158.543 105.176 158.833 104.209 159.11H104.206C98.8868 160.629 93.1829 161.651 85.8242 162.105C86.2617 162.113 85.3692 162.17 85.367 162.17C85.1165 162.187 84.8015 162.223 84.5499 162.236C81.6537 162.399 78.5277 162.433 75.3318 162.433C71.8362 162.433 68.3942 162.367 64.5452 162.17L64.4468 162.236C77.8015 177.247 98.6834 186.249 124.859 186.249C180.255 186.249 227.243 161.692 248.05 106.562C262.811 108.077 276.999 104.312 283.452 91.7144C273.173 85.783 259.954 87.6741 252.342 91.5Z" fill="#22A0C8"/>
<path fill-rule="evenodd" clip-rule="evenodd" d="M252.342 91.5C254.019 78.4669 244.266 68.2305 238.217 63.3698C231.247 71.4286 230.164 92.5489 241.099 101.441C234.996 106.862 222.137 111.775 208.969 111.775H58.1774C57.5234 132.825 65.3349 148.804 79.1556 158.464H79.1589C90.0821 158.223 98.9951 156.932 105.75 154.592C106.228 154.443 106.744 154.486 107.191 154.712C107.637 154.937 107.978 155.328 108.142 155.8C108.306 156.273 108.279 156.79 108.068 157.244C107.857 157.697 107.478 158.051 107.011 158.23C106.112 158.543 105.176 158.833 104.209 159.11H104.206C98.8868 160.629 92.6929 161.782 85.3342 162.236C85.332 162.236 85.1559 162.067 85.1537 162.067C104.007 171.737 131.343 171.702 162.684 159.664C197.826 146.162 230.528 120.442 253.345 91.0231C253.002 91.1784 252.667 91.337 252.342 91.5Z" fill="#37B1D9"/>
<path fill-rule="evenodd" clip-rule="evenodd" d="M48.9868 128.475C49.9821 135.838 52.1368 142.732 55.3306 149.012L57.1538 152.348C58.3081 154.306 59.5697 156.199 60.9328 158.018C67.5237 158.441 73.5995 158.586 79.159 158.464C90.0823 158.223 98.9953 156.933 105.75 154.592C106.228 154.443 106.744 154.486 107.191 154.712C107.637 154.937 107.978 155.328 108.142 155.8C108.306 156.273 108.28 156.79 108.069 157.244C107.858 157.697 107.478 158.051 107.011 158.23C106.112 158.543 105.176 158.833 104.209 159.11H104.206C98.887 160.629 92.7259 161.717 85.3671 162.172C85.1145 162.187 84.6737 162.19 84.4188 162.204C81.5248 162.366 78.4306 162.466 75.2335 162.466C71.739 162.466 68.1646 162.399 64.3179 162.203C77.6726 177.214 98.6835 186.249 124.859 186.249C172.284 186.249 213.545 168.248 237.492 128.475H48.9868Z" fill="#1B81A5"/>
<path fill-rule="evenodd" clip-rule="evenodd" d="M59.6201 128.475C62.4551 141.403 69.2681 151.552 79.1589 158.464C90.0821 158.223 98.9951 156.933 105.75 154.592C106.228 154.443 106.744 154.486 107.191 154.712C107.637 154.937 107.978 155.328 108.142 155.8C108.306 156.273 108.279 156.79 108.068 157.244C107.857 157.697 107.478 158.051 107.011 158.23C106.112 158.543 105.176 158.833 104.209 159.11H104.206C98.8868 160.629 92.5956 161.717 85.2357 162.172C104.088 171.84 131.345 171.701 162.684 159.664C181.643 152.379 199.89 141.536 216.26 128.475H59.6201Z" fill="#1D91B4"/>
<path fill-rule="evenodd" clip-rule="evenodd" d="M70.4407 86.2095H92.1166V107.885H70.4407V86.2095ZM72.2465 88.0164H73.9571V106.08H72.2465V88.0164ZM75.4621 88.0164H77.2416V106.08H75.4632V88.0164H75.4621ZM78.7455 88.0164H80.5251V106.08H78.7455V88.0164ZM82.0311 88.0164H83.8096V106.08H82.0311V88.0164ZM85.3157 88.0164H87.0941V106.08H85.3157V88.0164ZM88.5991 88.0164H90.3108V106.08H88.5991V88.0164ZM95.4504 61.1999H117.127V82.8747H95.4493V61.1999H95.4504ZM97.2572 63.0067H98.9668V81.0689H97.2572V63.0067ZM100.473 63.0067H102.251V81.0689H100.474V63.0067H100.473ZM103.756 63.0067H105.535V81.0689H103.756V63.0067ZM107.041 63.0067H108.819V81.0689H107.041V63.0067ZM110.325 63.0067H112.105V81.0689H110.325V63.0067ZM113.609 63.0067H115.322V81.0689H113.609V63.0067Z" fill="#23A3C2"/>
<path fill-rule="evenodd" clip-rule="evenodd" d="M95.4503 86.2095H117.127V107.885H95.4492V86.2095H95.4503ZM97.2572 88.0164H98.9667V106.08H97.2572V88.0164ZM100.473 88.0164H102.251V106.08H100.474V88.0164H100.473ZM103.756 88.0164H105.535V106.08H103.756V88.0164ZM107.041 88.0164H108.819V106.08H107.041V88.0164ZM110.325 88.0164H112.105V106.08H110.325V88.0164ZM113.609 88.0164H115.322V106.08H113.609V88.0164Z" fill="#34BBDE"/>
<path fill-rule="evenodd" clip-rule="evenodd" d="M120.461 86.2095H142.137V107.885H120.461V86.2095ZM122.267 88.0164H123.976V106.08H122.267V88.0164ZM125.483 88.0164H127.261V106.08H125.483V88.0164ZM128.767 88.0164H130.546V106.08H128.767V88.0164ZM132.052 88.0164H133.83V106.08H132.052V88.0164ZM135.335 88.0164H137.116V106.08H135.335V88.0164ZM138.62 88.0164H140.33V106.08H138.62V88.0164Z" fill="#23A3C2"/>
<path fill-rule="evenodd" clip-rule="evenodd" d="M120.461 61.1999H142.137V82.8747H120.461V61.1999ZM122.267 63.0067H123.976V81.0689H122.267V63.0067ZM125.483 63.0067H127.261V81.0689H125.483V63.0067ZM128.767 63.0067H130.546V81.0689H128.767V63.0067ZM132.052 63.0067H133.83V81.0689H132.052V63.0067ZM135.335 63.0067H137.116V81.0689H135.335V63.0067ZM138.62 63.0067H140.33V81.0689H138.62V63.0067ZM145.471 86.2095H167.147V107.885H145.471V86.2095ZM147.278 88.0164H148.987V106.08H147.278V88.0164ZM150.493 88.0164H152.272V106.08H150.493V88.0164ZM153.777 88.0164H155.555V106.08H153.777V88.0164ZM157.061 88.0164H158.841V106.08H157.061V88.0164ZM160.346 88.0164H162.125V106.08H160.346V88.0164ZM163.63 88.0164H165.341V106.08H163.63V88.0164Z" fill="#34BBDE"/>
<path fill-rule="evenodd" clip-rule="evenodd" d="M145.471 61.1999H167.147V82.8747H145.471V61.1999ZM147.278 63.0067H148.987V81.0689H147.278V63.0067ZM150.493 63.0067H152.272V81.0689H150.493V63.0067ZM153.777 63.0067H155.555V81.0689H153.777V63.0067ZM157.061 63.0067H158.841V81.0689H157.061V63.0067ZM160.346 63.0067H162.125V81.0689H160.346V63.0067ZM163.63 63.0067H165.341V81.0689H163.63V63.0067Z" fill="#23A3C2"/>
<path fill-rule="evenodd" clip-rule="evenodd" d="M145.471 36.1891H167.147V57.8672H145.471V36.1891ZM147.278 37.9948H148.987V56.0592H147.278V37.9937V37.9948ZM150.493 37.9948H152.272V56.0592H150.493V37.9937V37.9948ZM153.777 37.9948H155.555V56.0592H153.777V37.9937V37.9948ZM157.061 37.9948H158.841V56.0592H157.061V37.9937V37.9948ZM160.346 37.9948H162.125V56.0592H160.346V37.9937V37.9948ZM163.63 37.9948H165.341V56.0592H163.63V37.9937V37.9948Z" fill="#34BBDE"/>
<path fill-rule="evenodd" clip-rule="evenodd" d="M170.48 86.2095H192.156V107.885H170.48V86.2095ZM172.285 88.0164H173.997V106.08H172.286V88.0164H172.285ZM175.501 88.0164H177.28V106.08H175.502V88.0164H175.501ZM178.786 88.0164H180.566V106.08H178.786V88.0164ZM182.07 88.0164H183.849V106.08H182.07V88.0164ZM185.355 88.0164H187.134V106.08H185.355V88.0164ZM188.639 88.0164H190.35V106.08H188.639V88.0164Z" fill="#23A3C2"/>
<path fill-rule="evenodd" clip-rule="evenodd" d="M115.77 143.029C116.562 143.018 117.348 143.165 118.083 143.461C118.818 143.757 119.487 144.196 120.051 144.752C120.615 145.309 121.062 145.972 121.368 146.702C121.673 147.433 121.831 148.218 121.83 149.01C121.83 149.802 121.673 150.586 121.367 151.317C121.061 152.048 120.613 152.711 120.049 153.267C119.485 153.823 118.816 154.262 118.081 154.558C117.346 154.853 116.56 155 115.768 154.989C114.196 154.967 112.695 154.328 111.592 153.208C110.488 152.089 109.869 150.58 109.869 149.008C109.869 147.436 110.489 145.927 111.593 144.808C112.697 143.689 114.198 143.05 115.77 143.029Z" fill="#D3ECEC"/>
<path fill-rule="evenodd" clip-rule="evenodd" d="M115.77 144.725C116.317 144.725 116.839 144.828 117.32 145.015C116.988 145.208 116.728 145.505 116.582 145.859C116.435 146.214 116.41 146.608 116.509 146.979C116.608 147.35 116.827 147.677 117.131 147.912C117.436 148.146 117.809 148.273 118.193 148.274C118.854 148.274 119.429 147.908 119.726 147.365C120.078 148.214 120.148 149.153 119.926 150.045C119.703 150.936 119.2 151.732 118.49 152.315C117.78 152.899 116.902 153.238 115.984 153.284C115.066 153.33 114.158 153.079 113.394 152.569C112.63 152.059 112.05 151.317 111.74 150.452C111.43 149.587 111.407 148.645 111.673 147.766C111.939 146.887 112.482 146.116 113.219 145.569C113.957 145.021 114.851 144.725 115.77 144.725ZM10 130.637H288.17C282.114 129.101 269.008 127.025 271.169 119.087C260.155 131.831 233.595 128.028 226.892 121.744C219.428 132.57 175.973 128.455 172.943 120.021C163.584 131.003 134.588 131.003 125.23 120.021C122.197 128.455 78.7433 132.57 71.2784 121.743C64.5759 128.028 38.0175 131.831 27.0034 119.088C29.1647 127.025 16.0583 129.101 10 130.638" fill="#364548"/>
<path fill-rule="evenodd" clip-rule="evenodd" d="M131.665 186.12C116.856 179.093 108.728 169.539 104.206 159.111C98.7042 160.681 92.0924 161.685 84.4088 162.116C81.5148 162.278 78.4698 162.361 75.276 162.361C71.5923 162.361 67.7106 162.251 63.6353 162.036C77.2163 175.609 93.9234 186.059 124.859 186.249C127.143 186.249 129.409 186.206 131.665 186.12Z" fill="#BDD9D7"/>
<path fill-rule="evenodd" clip-rule="evenodd" d="M109.706 168.734C107.658 165.953 105.67 162.457 104.209 159.109C98.7075 160.681 92.0936 161.685 84.4089 162.117C89.6874 164.981 97.2353 167.636 109.707 168.734" fill="#D3ECEC"/>
</svg>
