<svg width="300" height="300" viewBox="0 0 300 300" fill="none" xmlns="http://www.w3.org/2000/svg">
<path d="M287.219 125.864C286.439 125.23 279.364 119.912 264.435 119.912C260.484 119.912 256.532 120.205 252.629 120.937C249.751 101.08 233.358 91.4204 232.626 90.9813L228.626 88.6395L225.991 92.4449C222.674 97.5676 220.283 103.178 218.868 109.13C216.185 120.449 217.795 131.084 223.552 140.159C216.624 144.013 205.452 144.989 203.207 145.038H18.7427C13.9127 145.038 10.0098 148.941 10.0098 153.771C9.81461 169.919 12.5467 185.97 18.0597 201.143C24.402 217.828 33.8668 230.074 46.1611 237.587C59.9192 246.027 82.3125 250.857 107.731 250.857C119.196 250.906 130.661 249.833 141.931 247.735C157.591 244.856 172.667 239.392 186.522 231.537C197.938 224.902 208.233 216.511 216.965 206.607C231.553 190.068 240.286 171.627 246.774 155.283H249.36C265.362 155.283 275.217 148.892 280.633 143.525C284.243 140.11 287.073 135.963 288.878 131.328L290 127.962L287.219 125.864ZM35.8182 139.72H60.5534C61.7243 139.72 62.7 138.744 62.7 137.573V115.57C62.7 114.399 61.7243 113.423 60.5534 113.375H35.8182C34.6473 113.375 33.6716 114.35 33.6716 115.521V137.573C33.6716 138.793 34.6473 139.72 35.8182 139.72ZM69.9205 139.72H94.6557C95.8266 139.72 96.8023 138.744 96.8023 137.573V115.57C96.8023 114.399 95.8266 113.423 94.6557 113.375H69.9205C68.7009 113.375 67.7251 114.35 67.7251 115.57V137.573C67.7251 138.793 68.7009 139.72 69.9205 139.72ZM104.462 139.769H129.197C130.368 139.769 131.344 138.793 131.344 137.622V115.619C131.344 114.448 130.368 113.472 129.197 113.423H104.462C103.291 113.423 102.315 114.399 102.315 115.57V137.622C102.315 138.793 103.291 139.72 104.462 139.769ZM138.662 139.769H163.397C164.568 139.769 165.544 138.793 165.592 137.622V115.619C165.592 114.399 164.617 113.423 163.397 113.423H138.662C137.491 113.423 136.515 114.399 136.515 115.57V137.622C136.515 138.793 137.442 139.769 138.662 139.769ZM69.8718 108.057H94.6069C95.7778 108.057 96.7536 107.081 96.7536 105.861V83.8584C96.7536 82.6875 95.7778 81.7117 94.6069 81.7117H69.8718C68.6521 81.7117 67.7251 82.6875 67.6763 83.8584V105.861C67.7251 107.081 68.7009 108.057 69.8718 108.057ZM104.462 108.057H129.197C130.368 108.057 131.344 107.081 131.344 105.861V83.8584C131.344 82.6875 130.368 81.7117 129.197 81.7117H104.462C103.291 81.7117 102.315 82.6875 102.315 83.8584V105.861C102.315 107.081 103.291 108.057 104.462 108.057ZM138.662 108.057H163.397C164.617 108.057 165.544 107.081 165.592 105.861V83.8584C165.592 82.6387 164.617 81.7117 163.397 81.7117H138.662C137.491 81.7117 136.515 82.6875 136.515 83.8584V105.861C136.515 107.081 137.442 108.057 138.662 108.057ZM138.662 76.3939H163.397C164.617 76.3939 165.592 75.4182 165.592 74.1985V52.1466C165.592 50.9757 164.617 50 163.397 50H138.662C137.491 50 136.515 50.9757 136.515 52.1466V74.1985C136.515 75.4182 137.442 76.3939 138.662 76.3939ZM173.106 139.769H197.841C199.012 139.769 199.987 138.793 199.987 137.622V115.619C199.987 114.399 199.012 113.472 197.841 113.423H173.106C171.935 113.423 170.959 114.399 170.959 115.57V137.622C170.959 138.793 171.935 139.769 173.106 139.769Z" fill="#0091E2"/>
</svg>
