<svg width="300" height="300" viewBox="0 0 300 300" fill="none" xmlns="http://www.w3.org/2000/svg">
<path d="M95.2808 115.111L148.398 84.4434C149.051 84.066 149.792 83.8674 150.547 83.8674C151.301 83.8674 152.042 84.066 152.696 84.4434L205.813 115.111C206.466 115.488 207.008 116.03 207.385 116.684C207.763 117.337 207.961 118.078 207.962 118.832V180.167C207.962 181.701 207.142 183.119 205.813 183.888L152.696 214.555C152.042 214.933 151.301 215.131 150.547 215.131C149.792 215.131 149.051 214.933 148.398 214.555L95.2808 183.888C94.6276 183.511 94.0852 182.968 93.708 182.315C93.3307 181.662 93.1321 180.921 93.1319 180.167V118.831C93.133 117.296 93.9521 115.878 95.2808 115.109" fill="#8080F2"/>
<path d="M288.252 144.473L224.719 33.9445C222.412 29.9484 218.149 27 213.534 27H86.4674C81.8523 27 77.5872 29.9484 75.2797 33.9445L11.7481 144.229C9.4406 148.226 9.4406 153.271 11.7481 157.268L75.2797 266.892C77.5872 270.888 81.8523 272.931 86.4674 272.931H213.533C218.148 272.931 222.412 270.949 224.718 266.952L288.251 157.15C290.561 153.155 290.561 148.469 288.251 144.473H288.252ZM235.643 197.623C235.643 199.247 234.666 200.751 233.257 201.564L152.331 248.254C151.634 248.653 150.845 248.863 150.042 248.863C149.239 248.863 148.449 248.653 147.753 248.254L66.7637 201.564C65.3562 200.751 64.3708 199.248 64.3708 197.622V104.24C64.3708 102.614 65.342 101.112 66.7505 100.299L147.673 53.6077C148.369 53.2078 149.158 52.9974 149.961 52.9974C150.764 52.9974 151.553 53.2078 152.25 53.6077L233.243 100.299C234.653 101.112 235.643 102.614 235.643 104.24V197.622V197.623Z" fill="#4B32C3"/>
</svg>
