<svg width="300" height="300" viewBox="0 0 300 300" fill="none" xmlns="http://www.w3.org/2000/svg">
<g clip-path="url(#clip0_4_20)">
<path d="M103.685 290C129.445 290 150.352 269.093 150.352 243.333V196.667H103.685C77.9253 196.667 57.0187 217.573 57.0187 243.333C57.0187 269.093 77.9253 290 103.685 290Z" fill="#0ACF83"/>
<path d="M57.0187 150C57.0187 124.24 77.9253 103.333 103.685 103.333H150.352V196.667H103.685C77.9253 196.667 57.0187 175.76 57.0187 150Z" fill="#A259FF"/>
<path d="M57.0187 56.6667C57.0187 30.9067 77.9253 10 103.685 10H150.352V103.333H103.685C77.9253 103.333 57.0187 82.4267 57.0187 56.6667Z" fill="#F24E1E"/>
<path d="M150.352 10H197.019C222.779 10 243.685 30.9067 243.685 56.6667C243.685 82.4267 222.779 103.333 197.019 103.333H150.352V10Z" fill="#FF7262"/>
<path d="M243.685 150C243.685 175.76 222.779 196.667 197.019 196.667C171.259 196.667 150.352 175.76 150.352 150C150.352 124.24 171.259 103.333 197.019 103.333C222.779 103.333 243.685 124.24 243.685 150Z" fill="#1ABCFE"/>
</g>
<defs>
<clipPath id="clip0_4_20">
<rect width="186.704" height="280" fill="white" transform="translate(57 10)"/>
</clipPath>
</defs>
</svg>
