<svg width="300" height="300" viewBox="0 0 300 300" fill="none" xmlns="http://www.w3.org/2000/svg">
<path d="M281.005 82.1902C279.852 79.1933 276.392 77.8086 273.624 78.9614C271.548 79.8846 270.165 81.9605 270.165 84.0364C270.165 84.7277 270.165 85.42 270.626 85.8805C275.931 99.9505 278.929 115.172 278.929 131.317C278.929 196.59 230.264 250.791 167.068 258.863V198.665C170.988 197.973 174.678 196.82 178.369 195.668V246.177C229.802 233.723 268.319 187.133 268.319 131.317C268.319 86.8036 243.64 47.8246 207.2 27.7586C204.433 26.1443 200.972 27.2982 199.587 30.2961C199.127 30.9885 199.127 31.9105 199.127 32.8336C199.127 34.9085 200.28 36.7536 201.894 37.6768C234.876 55.8975 257.249 91.1863 257.249 131.548C257.249 176.984 229.11 215.733 189.209 231.416V186.672C196.129 184.596 201.203 178.138 201.203 170.296C201.203 163.839 197.974 158.533 192.669 155.535C196.589 116.787 214.35 127.166 214.35 114.712V107.561C214.35 89.1092 171.68 28.9114 151.614 27.5278H147.924C127.858 28.9125 85.1898 89.1092 85.1898 107.561V114.711C85.1898 126.934 102.718 116.786 106.87 155.534C101.795 158.532 98.5664 164.067 98.5664 170.295C98.5664 177.906 103.641 184.364 110.56 186.671V231.416C70.8902 215.732 42.5205 176.983 42.5205 131.547C42.5205 91.1852 64.8931 55.8964 97.8752 37.6757C100.413 36.2921 101.565 33.0633 100.181 30.295C99.4906 28.2202 97.4136 27.0674 95.3377 27.0674C94.4156 27.0674 93.4925 27.2971 92.5705 27.7586C56.1289 47.8246 31.4484 86.8036 31.4484 131.317C31.4484 187.133 69.9659 233.723 121.86 246.408V195.898C125.55 197.05 129.241 198.204 133.162 198.896V259.093C69.967 250.791 21.3017 196.82 21.3017 131.317C21.3017 115.403 24.2997 100.181 29.6044 85.8805C30.7583 83.1133 29.3747 79.8846 26.6064 78.7307C25.9141 78.501 25.2228 78.2702 24.5305 78.2702C22.2238 78.2702 20.1478 79.6538 19.2258 81.9605C13.2288 97.413 10 114.019 10 131.317C10 206.738 69.5055 268.088 144.234 271.087V200.28C146.31 200.51 150 200.51 150 200.51C150 200.51 153.69 200.51 155.766 200.28V271.087C230.495 268.088 290 206.738 290 131.317C289.77 114.019 286.771 97.413 281.005 82.1902ZM175.832 161.993C177.908 159.918 180.675 158.533 183.904 158.533C187.134 158.533 189.901 159.918 191.976 161.993C194.053 164.068 195.437 166.837 195.437 170.065C195.437 173.294 194.053 176.062 191.977 178.137C189.901 180.214 187.134 181.598 183.905 181.598C180.675 181.598 177.908 180.214 175.832 178.138C173.756 176.062 172.373 173.294 172.373 170.066C172.373 166.837 173.756 164.068 175.832 161.993ZM124.168 178.137C122.092 180.214 119.325 181.598 116.096 181.598C112.866 181.598 110.099 180.214 108.024 178.138C105.716 176.062 104.563 173.294 104.563 170.066C104.563 166.837 105.947 164.068 108.023 161.993C110.099 159.918 112.866 158.533 116.095 158.533C119.325 158.533 122.092 159.918 124.168 161.993C126.244 164.068 127.627 166.837 127.627 170.065C127.398 173.294 126.244 176.062 124.168 178.137Z" fill="#128379"/>
</svg>
