<svg width="300" height="300" viewBox="0 0 300 300" fill="none" xmlns="http://www.w3.org/2000/svg">
<g clip-path="url(#clip0_4_25)">
<path fill-rule="evenodd" clip-rule="evenodd" d="M20.722 172.945C21.0897 175.396 22.1925 177.234 23.9693 179.072C25.7461 180.298 28.0131 181.523 30.8315 181.523C34.5689 181.523 37.3873 180.298 39.4091 178.459C41.431 176.621 42.4113 173.558 42.4113 169.208V166.083C41.4923 167.492 40.0831 168.779 38.0612 169.882C36.1006 171.107 33.466 171.72 30.3413 171.72C27.4617 171.72 24.7658 171.107 22.315 169.882C19.803 168.963 17.6586 167.492 15.8818 165.593C14.0989 163.755 12.6835 161.488 11.6542 158.976C10.6249 156.403 10.1102 153.584 10.1102 150.521C10.1127 147.641 10.6126 144.945 11.6113 142.372C12.61 139.799 13.9947 137.532 15.7592 135.632C17.536 133.672 19.6192 132.14 22.1312 131.037C24.582 129.934 27.3391 129.383 30.3413 129.383C33.7724 129.383 36.5295 129.996 38.5514 131.221C40.512 132.446 41.9212 133.794 42.6564 135.265V130.179H53.9912V168.902C53.9912 171.72 53.5623 174.783 52.7045 177.234C51.8468 180.298 50.4988 182.748 48.6608 184.586C46.8227 187.037 44.4945 188.263 41.6148 189.488C38.7352 190.713 35.2428 191.939 31.1991 191.939C28.1969 191.939 25.501 191.326 23.0503 190.101C20.5995 189.488 18.4551 188.263 16.617 187.037C14.8157 185.199 13.3452 183.974 12.2301 182.136C11.115 179.685 10.4043 177.847 10.1102 176.009L20.7098 172.945H20.722ZM32.3632 161.549C35.3654 161.549 37.8161 160.569 39.7155 158.547C41.6148 156.586 42.5951 153.891 42.5951 150.521C42.5951 147.151 41.5536 144.516 39.5929 142.556C37.5711 140.595 35.1816 139.615 32.3632 139.615C30.8927 139.615 29.4835 139.86 28.2582 140.35C26.9715 140.84 25.8687 141.575 24.9496 142.556C23.9693 143.536 23.2341 144.7 22.7439 146.048C22.1925 147.396 21.9474 148.866 21.9474 150.521C21.9474 153.952 22.9277 156.648 24.8271 158.608C26.7877 160.569 29.2997 161.549 32.3632 161.549ZM65.8774 173.558V130.179H77.396V173.558H65.8774ZM64.4682 115.965C64.4682 113.888 65.1422 112.154 66.5514 110.739C67.9606 109.33 69.6761 108.625 71.8818 108.625C73.7199 108.625 75.5579 109.33 76.7833 110.739C78.0087 112.154 79.2341 113.888 79.2341 115.965C79.2341 117.864 78.0087 119.58 76.7833 120.989C75.5579 122.398 73.7199 123.072 71.8818 123.072C69.6761 123.072 67.9606 122.398 66.5514 120.989C65.1422 119.58 64.4682 117.864 64.4682 115.965ZM104.354 130.179H113.545V140.534H104.354V158.731C104.354 160.63 104.967 161.917 105.58 162.652C106.805 163.387 108.031 163.755 109.869 163.755C110.481 163.755 111.094 163.755 111.707 163.694C112.319 163.632 112.932 163.51 113.545 163.387V172.945C112.932 173.558 111.707 173.558 111.094 173.558C109.869 174.171 108.643 174.171 106.805 174.171C102.516 174.171 98.8402 172.945 96.3894 170.495C93.9387 168.289 92.7133 164.98 92.7133 160.753V140.534H85.361V130.179H87.1991C89.6498 130.179 91.4879 129.505 92.1006 128.158C93.326 126.871 93.9387 125.217 93.9387 123.256V117.19H104.354V130.179ZM122.735 173.558V130.179H133.764V135.449C134.376 134.407 134.989 133.427 136.214 132.63C136.827 131.772 138.052 131.098 139.278 130.608C140.503 130.057 141.729 129.628 142.954 129.383C144.179 129.077 145.405 128.893 146.63 128.893C149.694 128.893 152.144 129.505 154.595 130.792C156.433 132.017 158.271 133.794 159.497 136.123C161.335 133.488 163.173 131.65 165.624 130.547C168.074 129.444 170.525 128.893 172.976 128.893C175.427 128.893 177.265 129.199 179.103 129.812C180.941 130.486 182.779 131.466 184.004 132.814C185.842 134.162 186.455 135.877 187.68 137.961C188.293 140.044 188.906 142.556 188.906 145.435V173.558H177.265V147.825C177.265 145.435 177.265 143.475 176.039 141.943C174.814 140.35 172.363 139.615 169.912 139.615C167.462 139.615 165.624 140.411 163.786 142.127C162.56 143.781 161.947 145.803 161.947 148.131V173.558H150.306V147.825C150.306 145.435 149.694 143.475 148.468 141.943C147.243 140.35 145.405 139.615 142.341 139.615C139.891 139.615 138.052 140.411 136.827 142.066C134.989 143.72 134.376 145.742 134.376 148.131V173.558H122.735ZM220.153 164.184C221.991 164.184 223.217 163.939 224.442 163.387C225.667 162.897 226.893 162.101 228.118 161.059C228.731 160.017 229.956 158.792 230.569 157.26C231.182 155.729 231.182 153.891 231.182 151.869C231.182 149.786 231.182 148.009 230.569 146.477C229.956 144.945 228.731 143.659 228.118 142.617C226.893 141.575 225.667 140.84 224.442 140.289C223.217 139.737 221.991 139.492 220.153 139.492C218.928 139.492 217.702 139.737 216.477 140.289C214.639 140.84 213.414 141.575 212.801 142.617C211.575 143.659 210.963 144.945 210.35 146.477C209.737 148.009 209.125 149.786 209.125 151.869C209.125 153.891 209.737 155.729 210.35 157.26C210.963 158.792 211.575 160.017 212.801 161.059C213.414 162.101 214.639 162.897 216.477 163.387C217.702 163.939 218.928 164.184 220.153 164.184ZM220.153 128.831C223.829 128.831 226.893 129.383 229.343 130.547C232.407 131.711 234.858 133.304 236.696 135.326C238.534 137.348 240.372 139.737 241.597 142.617C242.823 145.435 242.823 148.499 242.823 151.869C242.823 155.177 242.823 158.302 241.597 161.059C240.372 163.877 238.534 166.267 236.696 168.35C234.858 170.495 232.407 171.72 229.343 172.945C226.893 174.171 223.829 174.783 220.153 174.783C217.09 174.783 214.026 174.171 211.575 172.945C208.512 171.72 206.061 170.495 204.223 168.35C201.772 166.267 200.547 163.877 199.322 161.059C198.096 158.302 197.484 155.177 197.484 151.869C197.484 148.499 198.096 145.435 199.322 142.617C200.547 139.737 201.772 137.348 204.223 135.326C206.061 133.304 208.512 131.711 211.575 130.547C214.026 129.383 217.09 128.831 220.153 128.831ZM252.626 130.179H264.267V177.234C264.267 179.685 263.654 181.523 263.042 183.361C262.429 184.586 261.816 186.424 260.591 187.65C259.365 188.875 258.14 190.101 256.302 190.713C254.464 191.326 252.626 191.939 250.788 191.939C248.95 191.939 247.112 191.326 245.886 191.326C244.661 190.713 244.048 190.713 244.048 190.713V180.91H245.273C245.886 181.523 246.499 181.523 247.724 181.523C249.562 181.523 250.788 180.91 251.4 179.685C252.013 179.072 252.626 177.847 252.626 176.009V130.179ZM250.788 115.842C250.788 113.796 251.4 112.062 253.238 110.653C254.464 109.238 256.302 108.533 258.14 108.533C259.978 108.534 261.816 109.238 263.654 110.653C264.88 112.062 265.492 113.796 265.492 115.842C265.492 117.864 264.88 119.519 263.654 120.928C261.816 122.337 259.978 123.011 258.14 123.011C256.302 123.011 254.464 122.337 253.238 120.928C251.4 119.519 250.788 117.864 250.788 115.842ZM276.521 173.558V130.179H288.162V173.558H276.521ZM275.295 115.965C275.295 113.888 275.908 112.154 277.133 110.739C278.971 109.33 280.197 108.625 282.648 108.625C284.486 108.625 286.324 109.33 287.549 110.739C288.775 112.154 290 113.888 290 115.965C290 117.864 288.775 119.58 287.549 120.989C286.324 122.398 284.486 123.072 282.648 123.072C280.197 123.072 278.971 122.398 277.133 120.989C275.908 119.58 275.295 117.864 275.295 115.965Z" fill="black"/>
<path d="M220.153 175.396C233.35 175.396 244.048 164.698 244.048 151.501C244.048 138.304 233.35 127.606 220.153 127.606C206.956 127.606 196.258 138.304 196.258 151.501C196.258 164.698 206.956 175.396 220.153 175.396Z" fill="#FFDD67"/>
<path d="M236.757 161.978C240.276 161.978 243.129 159.125 243.129 155.606C243.129 152.087 240.276 149.234 236.757 149.234C233.238 149.234 230.385 152.087 230.385 155.606C230.385 159.125 233.238 161.978 236.757 161.978Z" fill="#FF717F"/>
<path d="M203.549 161.978C207.068 161.978 209.921 159.125 209.921 155.606C209.921 152.087 207.068 149.234 203.549 149.234C200.03 149.234 197.177 152.087 197.177 155.606C197.177 159.125 200.03 161.978 203.549 161.978Z" fill="#FF717F"/>
<path fill-rule="evenodd" clip-rule="evenodd" d="M238.166 142.433C236.022 139.86 232.836 138.328 229.466 138.389C228.976 138.389 228.853 136.613 229.466 136.613C233.326 136.613 237.063 138.328 239.514 141.33C239.882 141.759 238.473 142.801 238.166 142.433ZM210.84 138.267C207.47 138.267 204.285 139.737 202.14 142.311C201.821 142.678 200.418 141.637 200.774 141.208C203.243 138.206 206.962 136.49 210.822 136.49C211.435 136.49 211.312 138.267 210.822 138.267H210.84Z" fill="#917524"/>
<path d="M220.153 168.993C222.133 168.993 223.737 167.389 223.737 165.409C223.737 163.43 222.133 161.825 220.153 161.825C218.174 161.825 216.569 163.43 216.569 165.409C216.569 167.389 218.174 168.993 220.153 168.993Z" fill="#664E27"/>
<path fill-rule="evenodd" clip-rule="evenodd" d="M218.193 149.234C218.193 153.155 214.945 156.403 210.963 156.403C207.042 156.403 203.856 153.155 203.856 149.234C203.856 145.252 207.042 142.066 210.963 142.066C214.945 142.066 218.193 145.252 218.193 149.234Z" fill="white"/>
<path d="M210.963 152.818C212.942 152.818 214.547 151.214 214.547 149.234C214.547 147.255 212.942 145.65 210.963 145.65C208.983 145.65 207.379 147.255 207.379 149.234C207.379 151.214 208.983 152.818 210.963 152.818Z" fill="#664E27"/>
<path fill-rule="evenodd" clip-rule="evenodd" d="M236.451 149.234C236.451 153.155 233.265 156.403 229.344 156.403C225.355 156.403 222.114 153.155 222.114 149.234C222.144 145.264 225.355 142.066 229.344 142.066C233.265 142.052 236.451 145.264 236.451 149.234Z" fill="white"/>
<path d="M229.344 152.818C231.323 152.818 232.928 151.214 232.928 149.234C232.928 147.255 231.323 145.65 229.344 145.65C227.364 145.65 225.759 147.255 225.759 149.234C225.759 151.214 227.364 152.818 229.344 152.818Z" fill="#664E27"/>
</g>
<defs>
<clipPath id="clip0_4_25">
<rect width="280" height="83.9387" fill="white" transform="translate(10 108)"/>
</clipPath>
</defs>
</svg>
