<svg width="300" height="300" viewBox="0 0 300 300" fill="none" xmlns="http://www.w3.org/2000/svg">
<path d="M274.79 212.12H290L269.103 182.308L284.818 162.412H269.676L255.644 179.956V142.985H248.914C247.443 142.994 246.034 143.574 244.985 144.603C243.935 145.632 243.329 147.029 243.294 148.497V212.12H255.644V199.348L260.96 192.626L274.79 212.12ZM211.394 212.12V168.024C211.394 166.527 211.99 165.091 213.05 164.032C214.11 162.973 215.548 162.378 217.047 162.378H223.306V174.477C224.22 170.935 226.252 167.78 229.1 165.48C231.948 163.18 235.462 161.857 239.121 161.706L241.376 161.907V174.074C240.389 174.074 239.413 174.007 238.449 173.872C235.37 173.908 232.388 174.949 229.957 176.836C227.527 178.724 225.782 181.354 224.989 184.325C224.226 186.956 223.863 189.686 223.912 192.425V212.12H211.394ZM165.193 184.997C165.201 187.017 165.613 189.015 166.404 190.873C167.196 192.732 168.351 194.413 169.803 195.819C171.205 197.199 172.866 198.29 174.691 199.028C176.515 199.766 178.468 200.138 180.436 200.121H181.614C183.619 200.118 185.602 199.711 187.446 198.926C189.291 198.141 190.958 196.993 192.348 195.551C195.135 192.717 196.695 188.902 196.689 184.93H208.938C208.911 192.172 206.028 199.112 200.914 204.246C195.799 209.38 188.865 212.293 181.614 212.355H180.504C173.233 212.355 166.259 209.475 161.111 204.346C155.964 199.218 153.063 192.259 153.045 184.997H165.193ZM138.946 162.378L130.433 191.013L121.919 162.378H108.729L100.215 191.013L91.7017 162.378H85.9813C84.5589 162.413 83.2067 163.002 82.2133 164.019C81.22 165.037 80.6642 166.402 80.6646 167.823C80.658 168.358 80.7375 168.892 80.9001 169.402L93.9563 212.12H106.575L115.324 183.518L124.073 212.12H136.792L152.036 162.412L138.946 162.378ZM165.193 155.757C165.201 153.737 165.613 151.739 166.404 149.881C167.196 148.022 168.351 146.341 169.803 144.935C171.205 143.555 172.866 142.464 174.691 141.726C176.515 140.988 178.468 140.616 180.436 140.633H181.614C183.614 140.627 185.595 141.023 187.438 141.797C189.282 142.571 190.952 143.706 192.348 145.136C195.135 147.97 196.695 151.785 196.689 155.757H208.938C208.911 148.514 206.028 141.574 200.914 136.441C195.799 131.307 188.865 128.393 181.614 128.331H180.537C173.272 128.34 166.305 131.218 161.155 136.336C156.005 141.455 153.09 148.399 153.045 155.656L165.193 155.757ZM136.893 88H143.623V140.565C143.623 145.708 145.205 147.287 148.704 147.287H150.555V158.11C149.264 158.312 147.959 158.413 146.652 158.412C143.108 158.574 139.596 157.686 136.557 155.858C133.192 153.807 131.408 149.136 131.408 142.414V93.6464C131.408 92.1775 131.98 90.7663 133.004 89.7121C134.028 88.6578 135.423 88.0437 136.893 88ZM114.516 88H121.246V140.565C121.246 145.708 122.828 147.287 126.327 147.287H128.178V158.11C126.887 158.312 125.582 158.413 124.275 158.412C120.73 158.581 117.216 157.691 114.18 155.858C110.815 153.807 108.998 149.136 108.998 142.414V93.6464C108.997 92.1719 109.574 90.7557 110.606 89.7006C111.637 88.6455 113.04 88.0351 114.516 88ZM66.0606 113.644C68.4272 111.23 71.271 109.336 74.411 108.08C77.551 106.824 80.9184 106.235 84.2988 106.351C87.3345 106.179 90.3699 106.694 93.1783 107.858C95.9868 109.022 98.4958 110.805 100.518 113.073C104.506 117.745 106.595 123.741 106.373 129.877L106.07 134.65H71.7137C71.9817 138.362 73.6966 141.822 76.4901 144.285C79.2836 146.748 82.9329 148.019 86.6543 147.825C91.1509 147.662 95.5115 146.242 99.2393 143.725L101.023 142.347L105.801 151.22C104.807 152.227 103.674 153.088 102.436 153.774C97.4485 156.912 91.6742 158.579 85.7794 158.58C82.2031 158.713 78.6371 158.117 75.2989 156.829C71.9608 155.54 68.9205 153.586 66.3634 151.085C63.9681 148.634 62.0857 145.732 60.8262 142.546C59.5667 139.361 58.9553 135.957 59.0278 132.533C58.8699 129.074 59.4113 125.619 60.6196 122.374C61.8279 119.128 63.6784 116.159 66.0606 113.644ZM93.889 126.214C94.0749 123.676 93.2491 121.167 91.5914 119.235C89.9338 117.302 87.5786 116.102 85.0391 115.896H84.0296C81.1021 115.778 78.2398 116.78 76.0264 118.697C73.813 120.615 72.415 123.303 72.1175 126.214H93.889ZM10 157.236V93.6464C10 92.1489 10.5956 90.7127 11.6558 89.6538C12.7159 88.5949 14.1539 88 15.6532 88H22.3831V111.997L22.2149 116.165H22.4168C24.105 113.115 26.5968 110.585 29.6219 108.85C32.6471 107.114 36.0902 106.238 39.5782 106.317C51.1201 106.317 56.8742 112.669 56.8742 125.239V157.236H44.592V127.794C44.592 121.072 42.6403 117.711 36.6843 117.711C33.6277 117.755 30.6668 118.782 28.2418 120.641C25.8168 122.5 24.0571 125.091 23.2244 128.029C22.6814 130.136 22.4212 132.306 22.4504 134.482V157.236H10Z" fill="black"/>
</svg>
