<svg width="300" height="300" viewBox="0 0 300 300" fill="none" xmlns="http://www.w3.org/2000/svg">
<g clip-path="url(#clip0_2_39)">
<path d="M10 10H290V290H10V10Z" fill="#F0DB4F"/>
<path d="M267.084 223.221C265.034 210.445 256.703 199.719 232.03 189.711C223.46 185.772 213.905 182.951 211.057 176.456C210.046 172.677 209.913 170.548 210.551 168.259C212.388 160.833 221.251 158.517 228.278 160.646C232.802 162.163 237.087 165.65 239.669 171.213C251.753 163.388 251.726 163.441 260.163 158.065C257.076 153.274 255.426 151.065 253.403 149.015C246.137 140.898 236.236 136.719 220.399 137.038C217.658 137.384 214.89 137.757 212.148 138.103C204.244 140.099 196.711 144.251 192.293 149.814C179.038 164.852 182.817 191.175 198.947 202.008C214.836 213.932 238.179 216.647 241.16 227.799C244.061 241.453 231.126 245.871 218.27 244.301C208.795 242.331 203.525 237.514 197.829 228.757C187.342 234.825 187.342 234.825 176.563 241.027C179.118 246.616 181.806 249.145 186.091 253.989C206.373 274.563 257.129 273.552 266.232 242.411C266.605 241.346 269.053 234.213 267.084 223.221ZM162.217 138.688H136.027C136.027 161.312 135.92 183.776 135.92 206.399C135.92 220.798 136.666 234 134.323 238.046C130.491 246.004 120.563 245.019 116.038 243.475C111.434 241.213 109.092 237.992 106.377 233.441C105.631 232.137 105.072 231.125 104.886 231.046C97.7797 235.384 90.6996 239.749 83.5931 244.087C87.1333 251.354 92.3498 257.662 99.0304 261.76C109.011 267.749 122.426 269.585 136.453 266.365C145.582 263.703 153.46 258.194 157.586 249.81C163.548 238.817 162.27 225.509 162.217 210.791C162.35 186.783 162.217 162.776 162.217 138.688Z" fill="#323330"/>
</g>
<defs>
<clipPath id="clip0_2_39">
<rect width="280" height="280" fill="white" transform="translate(10 10)"/>
</clipPath>
</defs>
</svg>
