<svg width="300" height="300" viewBox="0 0 300 300" fill="none" xmlns="http://www.w3.org/2000/svg">
<path d="M260.657 147.86C260.657 133.467 248.988 121.798 234.595 121.798C233.668 121.798 232.755 121.848 231.855 121.943L267.651 16.3654H115.529L151.275 121.851C150.748 121.818 150.22 121.8 149.691 121.799C135.298 121.799 123.629 133.466 123.629 147.861C123.629 159.495 131.254 169.346 141.777 172.697C136.22 182.324 129.225 190.996 121.285 198.488C110.487 208.674 98.1295 216.398 84.7641 221.157C68.8511 212.983 61.337 194.803 68.1169 178.863C68.8828 177.062 69.6646 175.238 70.4116 173.421C81.9396 170.731 90.5311 160.396 90.5311 148.048C90.5311 133.654 78.8622 121.986 64.468 121.986C50.0739 121.986 38.406 133.654 38.406 148.048C38.406 156.874 42.7969 164.671 49.5104 169.386C43.0598 184.072 33.5775 199.444 30.6231 217.259C27.0823 238.608 30.6112 261.271 49.0768 274.07C92.0817 303.876 138.763 255.593 187.983 243.455C205.82 239.057 225.401 239.765 241.117 230.664C252.918 223.828 260.699 212.5 262.907 199.782C265.089 187.218 261.909 174.709 254.595 164.566C258.519 159.884 260.665 153.969 260.657 147.86Z" fill="#99425B"/>
<path d="M256.636 198.693C254.719 209.734 247.9 219.378 237.927 225.155C228.631 230.539 217.491 232.147 205.695 233.847C199.376 234.758 192.842 235.701 186.459 237.275C169.582 241.436 153.234 249.557 137.426 257.409C105.789 273.124 78.4667 286.693 52.7043 268.838C33.8328 255.759 34.7039 231.56 36.9023 218.3C38.9401 206.014 44.4491 194.699 49.7756 183.758C50.6831 181.898 51.5833 180.035 52.4761 178.168C55.1611 179.242 57.9785 179.948 60.8523 180.27C55.4295 198.166 63.9575 217.624 81.8557 226.819L84.3061 228.078L86.8994 227.154C101.05 222.115 114.089 214.029 125.653 203.117C133.129 196.064 139.556 188.262 144.839 179.924C146.445 180.167 148.067 180.288 149.691 180.288C166.119 180.288 179.723 168.007 181.828 152.146C188.552 151.9 195.694 151.898 202.457 152.144C204.561 168.007 218.166 180.289 234.594 180.289C241.463 180.289 247.834 178.137 253.084 174.48C256.727 181.939 258.088 190.332 256.636 198.693ZM64.4694 128.351C75.3307 128.351 84.1662 137.187 84.1662 148.049C84.1662 151.949 83.0214 155.587 81.0561 158.651C77.7822 163.757 72.2166 167.257 65.8226 167.694C65.3752 167.724 64.9238 167.745 64.4694 167.745C62.0487 167.745 59.7302 167.304 57.5863 166.502C53.2686 164.879 49.6529 161.799 47.3629 157.795C45.6624 154.828 44.769 151.468 44.7716 148.049C44.7716 137.187 53.6081 128.351 64.4694 128.351ZM129.996 147.861C129.996 137.993 137.29 129.799 146.769 128.382C147.723 128.239 148.699 128.164 149.692 128.164C156.007 128.164 161.629 131.155 165.234 135.79C166.137 136.946 166.909 138.199 167.534 139.526C168.758 142.134 169.392 144.98 169.389 147.861C169.389 149.436 169.199 150.966 168.849 152.435C166.929 160.47 160.077 166.613 151.68 167.459C151.027 167.524 150.364 167.558 149.692 167.558C145.904 167.561 142.196 166.465 139.018 164.402C133.595 160.889 129.996 154.789 129.996 147.861ZM212.205 124.438C207.918 128.529 204.834 133.716 203.285 139.435C195.861 139.162 188.429 139.162 181.005 139.435C179.338 133.253 175.883 127.798 171.236 123.655L191.618 82.442L212.205 124.438ZM124.407 22.7324H258.772L227.036 116.331C225.671 116.658 224.329 117.074 223.017 117.576L191.668 53.623L160.228 117.194C158.858 116.723 157.457 116.346 156.036 116.064L124.407 22.7324ZM254.291 147.862C254.291 149.836 253.996 151.743 253.454 153.544C252.166 157.783 249.492 161.467 245.861 164.005C242.561 166.321 238.626 167.562 234.594 167.559C225.5 167.559 217.828 161.361 215.572 152.968C215.124 151.303 214.897 149.586 214.897 147.862C214.897 145.17 215.441 142.602 216.423 140.263C216.93 139.066 217.554 137.922 218.286 136.848C221.831 131.616 227.812 128.165 234.594 128.165C235.216 128.165 235.829 128.197 236.437 128.254C246.438 129.186 254.292 137.622 254.292 147.862H254.291ZM267.022 147.862C267.022 132.03 255.615 118.821 240.591 115.999L276.53 10H106.651L142.646 116.214C128.143 119.441 117.265 132.4 117.265 147.861C117.265 159.47 123.4 169.667 132.595 175.397C128.172 181.987 122.928 188.187 116.918 193.858C107.386 202.849 96.7677 209.669 85.32 214.156C73.789 206.913 68.9149 193.253 73.9765 181.354L74.3734 180.421L75.1174 178.671C87.7824 174.253 96.8967 162.2 96.8967 148.049C96.8967 130.167 82.3497 115.62 64.4694 115.62C46.5891 115.62 32.0401 130.167 32.0401 148.049C32.0401 157.074 35.7505 165.246 41.7209 171.131C40.6074 173.491 39.477 175.842 38.3299 178.185C32.8705 189.397 26.6839 202.104 24.3435 216.217C19.6966 244.243 27.1928 266.647 45.4521 279.301C56.5317 286.98 67.784 290 79.1066 290C100.427 290 121.994 279.288 143.089 268.81C158.281 261.265 173.991 253.463 189.508 249.635C195.282 248.211 201.222 247.354 207.512 246.447C219.986 244.648 232.883 242.788 244.308 236.171C257.551 228.501 266.616 215.633 269.179 200.871C271.38 188.197 268.732 175.504 262.273 164.737C265.385 159.659 267.029 153.817 267.022 147.861V147.862Z" fill="white"/>
</svg>
