<svg width="300" height="300" viewBox="0 0 300 300" fill="none" xmlns="http://www.w3.org/2000/svg">
<mask id="mask0_1_2" style="mask-type:luminance" maskUnits="userSpaceOnUse" x="10" y="10" width="280" height="280">
<path d="M255 10H45C25.67 10 10 25.67 10 45V255C10 274.33 25.67 290 45 290H255C274.33 290 290 274.33 290 255V45C290 25.67 274.33 10 255 10Z" fill="white"/>
</mask>
<g mask="url(#mask0_1_2)">
<path d="M290 10H10V290H290V10Z" fill="black"/>
<path d="M290 10H10V290H290V10Z" fill="#2E32BE"/>
</g>
<path fill-rule="evenodd" clip-rule="evenodd" d="M35 109V190.159H47.7577V109H35Z" fill="white"/>
<path fill-rule="evenodd" clip-rule="evenodd" d="M67.274 170.059L108.944 162.526L109.163 161.646C109.269 161.225 109.258 160.843 109.242 160.58C109.235 160.461 109.228 160.371 109.222 160.294C109.213 160.165 109.206 160.071 109.206 159.939V159.886L109.202 159.833C108.097 145.213 95.7419 133.721 80.9742 133.611L80.964 133.61L80.9537 133.611C65.1965 133.721 52.5121 146.437 52.5121 162.253C52.5121 165.224 52.9501 168.325 53.951 171.227C57.9248 182.957 69.268 190.679 80.9545 190.79C89.3765 190.845 95.8539 187.524 100.45 183.547C105.018 179.595 107.776 174.955 108.802 172.211L109.317 170.833L98.1283 167.231L97.679 168.522C97.0136 170.436 95.0882 173.006 92.1234 175.109C89.1893 177.19 85.3501 178.73 80.9635 178.73H80.9435C74.9209 178.818 69.6774 175.228 67.274 170.059ZM106.937 173.012C104.574 177.946 97.7975 186.856 86.2206 188.942C98.8549 186.666 105.772 176.26 107.474 171.767C107.332 172.143 107.153 172.561 106.937 173.012ZM65.4795 159.267C66.1803 151.778 72.4271 145.746 79.8668 145.459C86.0168 145.195 91.8046 148.817 94.5094 154.344L65.4779 159.51C65.4791 159.417 65.4795 159.337 65.4795 159.267ZM81.0909 144.053C87.4591 144.285 93.2551 148.268 95.9373 154.089C96.1368 154.522 96.3191 154.963 96.483 155.415C94.1132 148.88 87.9325 144.302 81.0909 144.053Z" fill="white"/>
<path fill-rule="evenodd" clip-rule="evenodd" d="M126.924 170.059L168.595 162.526L168.814 161.646C168.919 161.225 168.908 160.843 168.893 160.58C168.886 160.461 168.879 160.371 168.873 160.294L168.872 160.285C168.863 160.16 168.856 160.068 168.856 159.939V159.886L168.852 159.833C167.747 145.213 155.392 133.721 140.624 133.611L140.614 133.61L140.604 133.611C124.847 133.721 112.162 146.437 112.162 162.253C112.162 165.224 112.6 168.325 113.601 171.227C117.575 182.957 128.918 190.679 140.605 190.79C149.027 190.845 155.504 187.524 160.1 183.547C164.668 179.595 167.426 174.955 168.452 172.211L168.967 170.833L157.779 167.231L157.329 168.522C156.664 170.436 154.739 173.006 151.774 175.109C148.839 177.19 145.001 178.73 140.614 178.73H140.594C134.571 178.818 129.328 175.228 126.924 170.059ZM125.13 159.267C125.831 151.778 132.078 145.746 139.517 145.459C145.667 145.195 151.455 148.817 154.16 154.344L125.128 159.51C125.129 159.417 125.13 159.337 125.13 159.267ZM142.536 144.218C148.181 145.057 153.16 148.82 155.588 154.089C155.787 154.522 155.97 154.963 156.133 155.415C153.973 149.457 148.644 145.126 142.536 144.218Z" fill="white"/>
<path d="M209.603 182.884L203.412 173.024L202.072 174.875C202.072 174.875 201.825 175.222 201.676 175.452C201.379 175.912 200.924 176.465 200.331 176.996C199.137 178.068 197.515 178.94 195.653 178.94C192.592 178.94 189.292 176.355 189.292 171.508V146.617H203.552V134.767H189.292V116.902L176.534 117.71V134.767H169.089V146.617H176.534V174.242C176.534 179.939 178.441 184.192 181.653 187C184.835 189.781 189.128 191 193.661 191C198.485 191 202.324 189.149 204.931 187.331C206.237 186.421 207.247 185.51 207.934 184.823C208.278 184.478 208.543 184.188 208.725 183.98C208.816 183.876 208.886 183.793 208.936 183.733C208.961 183.703 208.98 183.679 208.995 183.661L209.012 183.639L209.021 183.627L209.603 182.884Z" fill="white"/>
<path fill-rule="evenodd" clip-rule="evenodd" d="M207.194 162.463C207.194 178.169 219.875 191 235.646 191C251.308 191 264.097 178.172 264.097 162.463C264.097 146.754 251.308 133.926 235.646 133.926C219.875 133.926 207.194 146.758 207.194 162.463ZM251.654 162.463C251.654 171.819 244.802 178.73 235.96 178.73C227.019 178.73 220.266 171.825 220.266 162.463C220.266 153.09 227.03 146.091 235.96 146.091C244.791 146.091 251.654 153.096 251.654 162.463Z" fill="white"/>
</svg>
