<svg width="300" height="300" viewBox="0 0 300 300" fill="none" xmlns="http://www.w3.org/2000/svg">
<rect x="10" y="10" width="280" height="280" rx="34" fill="url(#paint0_linear_1_2)"/>
<path fill-rule="evenodd" clip-rule="evenodd" d="M133.705 86.1279C131.874 86.3423 129.684 87.1931 128.145 88.2873C125.949 89.8481 124.308 92.1798 123.487 94.9052L123.167 95.9667L123.067 127.341C122.942 167.017 122.986 180.073 123.254 182.601C123.928 188.942 125.369 194.061 127.824 198.825C131.259 205.49 136.961 211.063 143.949 214.585C148.268 216.761 152.954 218.087 158.762 218.775C161.3 219.075 168.153 219.075 170.407 218.775C173.758 218.328 176.396 217.68 178.689 216.738C179.363 216.461 179.945 216.205 179.982 216.168C180.054 216.097 179.939 213.838 179.116 199.125C178.828 193.974 178.572 189.739 178.546 189.713C178.521 189.688 177.946 189.831 177.27 190.03C174.214 190.934 169.88 191.324 166.909 190.963C160.587 190.195 155.41 186.001 153.75 180.301C153.011 177.767 153.061 181.448 153.088 131.499L153.113 86L143.824 86.0153C138.715 86.0237 134.162 86.0743 133.705 86.1279Z" fill="white"/>
<defs>
<linearGradient id="paint0_linear_1_2" x1="150" y1="10" x2="150" y2="290" gradientUnits="userSpaceOnUse">
<stop stop-color="#35BAFF"/>
<stop offset="1" stop-color="#079CEE"/>
</linearGradient>
</defs>
</svg>
