<svg width="300" height="300" viewBox="0 0 300 300" fill="none" xmlns="http://www.w3.org/2000/svg">
<path d="M290 105.645C290 62.1394 245.378 27 191.833 27C148.327 27 112.072 49.8685 98.6853 81.1036C102.032 81.1036 104.821 81.1036 107.052 81.1036C161.155 81.1036 204.661 116.243 204.661 159.749C204.661 168.115 202.43 177.598 199.641 184.849C204.661 184.849 210.239 183.733 215.259 182.617L242.032 209.39C245.936 213.295 250.398 212.737 250.398 206.044V169.789C274.382 154.729 290 131.861 290 105.645Z" fill="#00D9BC"/>
<path d="M107.61 81.1037C104.263 81.1037 101.474 81.1037 99.243 81.1037C49.6016 83.8925 10 117.916 10 159.749C10 192.1 33.9841 219.988 69.1235 232.259V266.283C69.1235 272.418 73.0279 274.649 77.49 269.629L108.725 238.394C151.115 238.394 188.486 215.526 200.757 184.291C204.103 175.924 205.777 167.558 205.777 159.191C204.661 116.243 161.155 81.1037 107.61 81.1037Z" fill="#4222C4"/>
<path d="M107.609 81.1037C104.263 81.1037 101.474 81.1037 99.2429 81.1037C95.8963 89.4702 94.223 97.8368 94.223 106.203C94.223 149.709 138.845 184.849 192.39 184.849C195.737 184.849 197.41 184.849 200.757 184.849C204.103 176.482 205.777 168.116 205.777 159.749C204.661 116.243 161.155 81.1037 107.609 81.1037Z" fill="#25136D"/>
</svg>
