<svg width="300" height="300" viewBox="0 0 300 300" fill="none" xmlns="http://www.w3.org/2000/svg">
<g clip-path="url(#clip0_4_14)">
<path fill-rule="evenodd" clip-rule="evenodd" d="M151.446 112C151.252 112.002 151.056 112.049 150.883 112.15C150.537 112.353 150.319 112.726 150.319 113.127V141.859C150.319 142.141 150.188 142.394 149.944 142.535C149.699 142.677 149.4 142.677 149.155 142.535L144.46 139.831C143.761 139.428 142.906 139.428 142.207 139.831L123.465 150.648C122.764 151.052 122.338 151.83 122.338 152.639V174.272C122.338 175.081 122.765 175.821 123.465 176.225L142.207 187.042C142.907 187.447 143.759 187.447 144.46 187.042L163.202 176.225C163.902 175.821 164.329 175.081 164.329 174.272V120.338C164.329 119.518 163.881 118.748 163.164 118.348L152.009 112.113C151.834 112.015 151.64 111.998 151.446 112ZM30.8826 139.005C30.5252 139.019 30.1894 139.082 29.8685 139.268L11.1268 150.085C10.4284 150.488 10 151.224 10 152.038L10.0375 181.07C10.0375 181.474 10.2458 181.849 10.6009 182.047C10.9489 182.255 11.3808 182.255 11.7276 182.047L22.845 175.662C23.5492 175.244 24.0093 174.516 24.0093 173.709V160.15C24.0093 159.342 24.4347 158.599 25.1361 158.197L29.8685 155.456C30.2217 155.251 30.6009 155.155 30.9952 155.155C31.3815 155.155 31.7785 155.251 32.122 155.456L36.8544 158.197C37.5557 158.599 37.9811 159.342 37.9811 160.15V173.709C37.9811 174.516 38.4458 175.248 39.1455 175.662L50.2628 182.047C50.612 182.255 51.0433 182.255 51.3896 182.047C51.7347 181.849 51.953 181.474 51.953 181.07L51.9904 152.038C51.9904 151.224 51.5668 150.488 50.8637 150.085L32.1219 139.268C31.8049 139.082 31.4677 139.019 31.1079 139.005H30.8826ZM199.296 139.268C198.904 139.267 198.521 139.366 198.169 139.568L179.427 150.385C178.727 150.789 178.3 151.529 178.3 152.338V173.972C178.3 174.785 178.759 175.523 179.465 175.925L198.056 186.517C198.743 186.909 199.581 186.938 200.272 186.554L211.54 180.281C211.897 180.083 212.139 179.713 212.141 179.305C212.143 178.897 211.93 178.531 211.577 178.328L192.723 167.511C192.37 167.31 192.122 166.902 192.122 166.497V159.737C192.122 159.333 192.373 158.962 192.723 158.76L198.582 155.38C198.931 155.178 199.359 155.178 199.709 155.38L205.568 158.76C205.918 158.962 206.131 159.333 206.131 159.737V165.07C206.131 165.475 206.345 165.845 206.695 166.047C207.046 166.249 207.472 166.25 207.822 166.047L219.052 159.512C219.749 159.107 220.178 158.365 220.178 157.558V152.338C220.178 151.531 219.75 150.79 219.052 150.385L200.422 139.568C200.072 139.364 199.687 139.268 199.296 139.268ZM143.258 155.418C143.356 155.418 143.471 155.442 143.559 155.492L149.981 159.211C150.155 159.312 150.282 159.498 150.282 159.699V167.136C150.282 167.338 150.157 167.524 149.981 167.624L143.559 171.342C143.384 171.442 143.17 171.442 142.995 171.342L136.573 167.624C136.398 167.523 136.272 167.338 136.272 167.136V159.699C136.272 159.498 136.398 159.312 136.573 159.211L142.995 155.493C143.083 155.443 143.16 155.419 143.258 155.419V155.418Z" fill="#404137"/>
<path fill-rule="evenodd" clip-rule="evenodd" d="M255.446 138.742C254.796 138.742 254.164 138.876 253.606 139.193L235.915 149.409C234.771 150.068 234.075 151.314 234.075 152.639V173.033C234.075 174.357 234.771 175.602 235.915 176.263L240.535 178.93C242.78 180.036 243.607 180.019 244.629 180.019C247.952 180.019 249.85 178.002 249.85 174.498V154.366C249.85 154.082 249.603 153.878 249.324 153.878H247.108C246.824 153.878 246.582 154.082 246.582 154.366V174.498C246.582 176.051 244.964 177.613 242.338 176.301L237.53 173.484C237.361 173.391 237.23 173.228 237.23 173.033V152.639C237.23 152.445 237.359 152.248 237.53 152.15L255.183 141.972C255.348 141.877 255.545 141.877 255.709 141.972L273.361 152.15C273.53 152.251 273.662 152.439 273.662 152.639V173.033C273.662 173.228 273.564 173.427 273.399 173.521L255.709 183.7C255.557 183.79 255.348 183.79 255.183 183.7L250.638 180.995C250.503 180.916 250.318 180.922 250.188 180.995C248.933 181.707 248.697 181.789 247.521 182.197C247.231 182.298 246.791 182.455 247.671 182.949L253.606 186.441C254.17 186.768 254.8 186.93 255.446 186.93C256.101 186.93 256.721 186.768 257.286 186.441L274.976 176.263C276.121 175.597 276.817 174.357 276.817 173.033V152.639C276.817 151.314 276.121 150.07 274.976 149.409L257.286 139.193C256.732 138.876 256.096 138.742 255.446 138.742ZM87.1831 139.155C86.7925 139.155 86.4061 139.254 86.0563 139.455L67.3145 150.235C66.6138 150.639 66.1878 151.417 66.1878 152.225V173.859C66.1878 174.668 66.6143 175.408 67.3145 175.812L86.0563 186.629C86.757 187.034 87.6091 187.034 88.3098 186.629L107.052 175.812C107.751 175.408 108.178 174.668 108.178 173.859V152.225C108.178 151.416 107.752 150.639 107.052 150.235L88.3098 139.455C87.9601 139.254 87.5736 139.155 87.1831 139.155ZM281.699 139.268V139.794H283.164V143.662H283.765V139.794H285.268V139.268H281.699ZM285.793 139.268V143.662H286.357V141.071C286.357 140.965 286.362 140.801 286.357 140.583C286.35 140.36 286.357 140.165 286.357 140.057V139.944L287.596 143.662H288.197L289.474 139.944C289.474 140.18 289.443 140.409 289.437 140.62C289.434 140.825 289.437 140.98 289.437 141.07V143.662H290V139.268H289.174L287.897 142.986L286.657 139.268L285.793 139.268ZM260.178 153.315C255.141 153.315 252.141 155.459 252.141 159.024C252.141 162.891 255.118 163.954 259.953 164.432C265.737 164.998 266.188 165.848 266.188 166.986C266.188 168.961 264.613 169.803 260.892 169.803C256.217 169.803 255.189 168.636 254.845 166.31C254.805 166.061 254.612 165.859 254.357 165.859H252.066C251.783 165.859 251.54 166.102 251.54 166.385C251.54 169.362 253.159 172.883 260.892 172.883C266.49 172.883 269.718 170.686 269.718 166.836C269.718 163.02 267.11 161.995 261.681 161.277C256.194 160.551 255.671 160.196 255.671 158.911C255.671 157.851 256.115 156.432 260.178 156.432C263.808 156.432 265.15 157.215 265.699 159.662C265.748 159.892 265.95 160.075 266.188 160.075H268.479C268.62 160.075 268.757 159.989 268.854 159.888C268.951 159.779 269.018 159.658 269.005 159.512C268.65 155.297 265.839 153.315 260.178 153.315ZM199.258 158.46C199.183 158.46 199.1 158.461 199.033 158.498L195.427 160.601C195.292 160.678 195.202 160.821 195.202 160.977V165.108C195.202 165.264 195.292 165.406 195.427 165.484L199.033 167.549C199.168 167.627 199.312 167.627 199.446 167.549L203.052 165.484C203.185 165.407 203.277 165.264 203.277 165.108V160.977C203.277 160.821 203.185 160.678 203.052 160.601L199.446 158.498C199.379 158.458 199.333 158.46 199.258 158.46Z" fill="#83CD29"/>
</g>
<defs>
<clipPath id="clip0_4_14">
<rect width="280" height="75.3456" fill="white" transform="translate(10 112)"/>
</clipPath>
</defs>
</svg>
