<svg width="300" height="300" viewBox="0 0 300 300" fill="none" xmlns="http://www.w3.org/2000/svg">
<g clip-path="url(#clip0_4_14)">
<path d="M148.42 235.201C147.472 235.201 146.587 234.948 145.766 234.506L137.361 229.513C136.096 228.818 136.729 228.565 137.108 228.439C138.814 227.87 139.13 227.743 140.9 226.733C141.089 226.606 141.342 226.669 141.532 226.796L147.978 230.651C148.231 230.777 148.547 230.777 148.736 230.651L173.952 216.052C174.204 215.926 174.331 215.673 174.331 215.357V186.224C174.331 185.907 174.204 185.655 173.952 185.528L148.736 170.993C148.483 170.866 148.167 170.866 147.978 170.993L122.762 185.528C122.509 185.654 122.383 185.97 122.383 186.223V215.357C122.383 215.61 122.509 215.925 122.762 216.052L129.651 220.033C133.379 221.929 135.718 219.717 135.718 217.506V188.751C135.718 188.372 136.034 187.992 136.476 187.992H139.699C140.078 187.992 140.457 188.308 140.457 188.751V217.506C140.457 222.498 137.74 225.405 133 225.405C131.547 225.405 130.409 225.405 127.186 223.825L120.55 220.033C118.907 219.086 117.896 217.316 117.896 215.42V186.286C117.896 184.391 118.907 182.621 120.55 181.673L145.766 167.074C147.346 166.19 149.495 166.19 151.074 167.074L176.29 181.673C177.933 182.621 178.944 184.391 178.944 186.286V215.42C178.944 217.316 177.933 219.086 176.29 220.033L151.074 234.632C150.253 235.011 149.305 235.201 148.42 235.201H148.42ZM156.193 215.167C145.134 215.167 142.859 210.112 142.859 205.814C142.859 205.435 143.175 205.056 143.617 205.056H146.903C147.282 205.056 147.598 205.309 147.598 205.688C148.104 209.037 149.558 210.68 156.256 210.68C161.565 210.68 163.841 209.48 163.841 206.636C163.841 204.993 163.208 203.792 154.929 202.97C148.041 202.275 143.743 200.759 143.743 195.261C143.743 190.141 148.041 187.108 155.245 187.108C163.334 187.108 167.316 189.889 167.822 195.955C167.822 196.145 167.758 196.334 167.632 196.524C167.505 196.65 167.316 196.777 167.126 196.777H163.84C163.524 196.777 163.208 196.524 163.145 196.208C162.387 192.733 160.428 191.595 155.245 191.595C149.431 191.595 148.736 193.617 148.736 195.134C148.736 196.967 149.558 197.535 157.394 198.546C165.167 199.558 168.833 201.011 168.833 206.446C168.77 212.007 164.22 215.167 156.193 215.167Z" fill="#539E43"/>
<path d="M70.1822 121.257C70.1822 120.119 69.5501 119.044 68.539 118.476L41.7435 103.056C41.3006 102.803 40.7954 102.676 40.2901 102.613H40.037C39.5317 102.613 39.0259 102.803 38.5836 103.056L11.788 118.476C10.7765 119.044 10.1449 120.119 10.1449 121.257L10.2083 162.714C10.2083 163.282 10.5244 163.851 11.0296 164.104C11.5354 164.42 12.167 164.42 12.6099 164.104L28.5355 155.004C29.5465 154.435 30.1786 153.361 30.1786 152.223V132.822C30.1786 131.684 30.8102 130.61 31.8218 130.041L38.5836 126.123C39.0893 125.807 39.658 125.68 40.2267 125.68C40.7954 125.68 41.364 125.807 41.807 126.123L48.5687 130.041C49.5803 130.61 50.2119 131.684 50.2119 132.822V152.223C50.2119 153.361 50.844 154.435 51.855 155.004L67.7806 164.104C68.2864 164.42 68.918 164.42 69.4238 164.104C69.9296 163.851 70.2456 163.282 70.2456 162.714L70.1822 121.257ZM198.978 64.1898C198.472 63.9366 197.84 63.9366 197.397 64.1898C196.892 64.5058 196.576 65.0111 196.576 65.5797V106.658C196.576 107.037 196.387 107.416 196.007 107.669C195.629 107.859 195.249 107.859 194.87 107.669L188.171 103.814C187.68 103.535 187.125 103.388 186.56 103.388C185.994 103.388 185.439 103.535 184.948 103.814L158.152 119.298C157.141 119.866 156.509 120.941 156.509 122.078V152.981C156.509 154.119 157.141 155.194 158.152 155.762L184.948 171.245C185.439 171.525 185.994 171.672 186.56 171.672C187.125 171.672 187.68 171.525 188.171 171.245L214.967 155.762C215.978 155.194 216.61 154.119 216.61 152.981V75.9444C216.61 74.7436 215.978 73.6697 214.967 73.1004L198.978 64.1898H198.978ZM196.513 142.807C196.513 143.123 196.387 143.376 196.134 143.502L186.97 148.81C186.842 148.873 186.702 148.905 186.56 148.905C186.417 148.905 186.277 148.873 186.149 148.81L176.985 143.502C176.732 143.376 176.606 143.059 176.606 142.807V132.19C176.606 131.874 176.732 131.621 176.985 131.495L186.149 126.186C186.277 126.123 186.417 126.091 186.56 126.091C186.702 126.091 186.842 126.123 186.97 126.186L196.134 131.495C196.387 131.62 196.513 131.937 196.513 132.19V142.807ZM288.149 131.937C289.16 131.368 289.729 130.294 289.729 129.156V121.636C289.729 120.498 289.097 119.424 288.149 118.855L261.543 103.435C261.052 103.156 260.496 103.009 259.931 103.009C259.366 103.009 258.811 103.156 258.32 103.435L231.524 118.918C230.513 119.487 229.881 120.561 229.881 121.699V152.602C229.881 153.74 230.513 154.814 231.524 155.383L258.13 170.55C259.142 171.119 260.342 171.119 261.29 170.55L277.405 161.577C277.911 161.324 278.227 160.755 278.227 160.186C278.227 159.618 277.911 159.049 277.405 158.796L250.483 143.313C249.978 142.997 249.662 142.491 249.662 141.923V132.254C249.662 131.685 249.978 131.116 250.483 130.863L258.889 126.06C259.135 125.905 259.42 125.823 259.71 125.823C260.001 125.823 260.286 125.905 260.532 126.06L268.937 130.863C269.443 131.179 269.759 131.684 269.759 132.254V139.837C269.759 140.406 270.075 140.975 270.58 141.227C271.086 141.543 271.717 141.543 272.223 141.227L288.149 131.937Z" fill="#333333"/>
<path d="M259.521 130.484C259.615 130.422 259.724 130.389 259.837 130.389C259.949 130.389 260.059 130.422 260.152 130.484L265.272 133.454C265.461 133.58 265.588 133.769 265.588 134.022V139.963C265.588 140.216 265.461 140.405 265.272 140.532L260.152 143.502C260.059 143.564 259.949 143.596 259.837 143.596C259.724 143.596 259.615 143.564 259.521 143.502L254.402 140.532C254.212 140.405 254.086 140.216 254.086 139.963V134.022C254.086 133.769 254.212 133.58 254.402 133.454L259.521 130.484Z" fill="#539E43"/>
<mask id="mask0_4_14" style="mask-type:alpha" maskUnits="userSpaceOnUse" x="83" y="103" width="61" height="69">
<path d="M114.989 103.562C114.498 103.282 113.942 103.135 113.377 103.135C112.812 103.135 112.257 103.282 111.766 103.562L85.1602 118.918C84.1486 119.486 83.58 120.561 83.58 121.698V152.475C83.58 153.613 84.2121 154.687 85.1602 155.256L111.766 170.613C112.257 170.892 112.812 171.039 113.377 171.039C113.942 171.039 114.498 170.892 114.989 170.613L141.595 155.256C142.606 154.687 143.175 153.613 143.175 152.475V121.699C143.175 120.561 142.543 119.487 141.595 118.918L114.989 103.562Z" fill="white"/>
</mask>
<g mask="url(#mask0_4_14)">
<path d="M114.989 103.562C114.498 103.282 113.942 103.135 113.377 103.135C112.812 103.135 112.257 103.282 111.766 103.562L85.1602 118.918C84.1486 119.486 83.58 120.561 83.58 121.698V152.475C83.58 153.613 84.2121 154.687 85.1602 155.256L111.766 170.613C112.257 170.892 112.812 171.039 113.377 171.039C113.942 171.039 114.498 170.892 114.989 170.613L141.595 155.256C142.606 154.687 143.175 153.613 143.175 152.475V121.699C143.175 120.561 142.543 119.487 141.595 118.918L114.989 103.562Z" fill="url(#paint0_linear_4_14)"/>
<path d="M141.658 118.918L114.926 103.562C114.663 103.429 114.388 103.323 114.104 103.246L84.1487 154.562C84.3968 154.865 84.6965 155.122 85.034 155.32L111.766 170.677C112.524 171.12 113.409 171.246 114.23 170.993L142.354 119.551C142.164 119.298 141.911 119.108 141.658 118.919V118.918Z" fill="url(#paint1_linear_4_14)"/>
<path fill-rule="evenodd" clip-rule="evenodd" d="M141.721 155.256C142.48 154.814 143.049 154.056 143.302 153.234L113.977 103.182C113.219 103.056 112.397 103.119 111.703 103.561L85.1597 118.855L113.788 171.056C114.204 170.988 114.608 170.86 114.988 170.677L141.721 155.257L141.721 155.256Z" fill="url(#paint2_linear_4_14)"/>
<path fill-rule="evenodd" clip-rule="evenodd" d="M141.722 155.256L115.052 170.613C114.676 170.805 114.27 170.933 113.852 170.992L114.357 171.94L143.933 154.815V154.435L143.175 153.171C143.049 154.056 142.48 154.814 141.722 155.256Z" fill="url(#paint3_linear_4_14)"/>
<path fill-rule="evenodd" clip-rule="evenodd" d="M141.722 155.256L115.052 170.613C114.676 170.805 114.27 170.933 113.852 170.992L114.357 171.94L143.933 154.815V154.435L143.175 153.171C143.049 154.056 142.48 154.814 141.722 155.256Z" fill="url(#paint4_linear_4_14)"/>
</g>
</g>
<defs>
<linearGradient id="paint0_linear_4_14" x1="124.217" y1="115.01" x2="95.0544" y2="160.833" gradientUnits="userSpaceOnUse">
<stop stop-color="#41873F"/>
<stop offset="0.3288" stop-color="#418B3D"/>
<stop offset="0.6352" stop-color="#419637"/>
<stop offset="0.9319" stop-color="#3FA92D"/>
<stop offset="1" stop-color="#3FAE2A"/>
</linearGradient>
<linearGradient id="paint1_linear_4_14" x1="109.338" y1="140.692" x2="182.374" y2="101.012" gradientUnits="userSpaceOnUse">
<stop offset="0.1376" stop-color="#41873F"/>
<stop offset="0.4032" stop-color="#54A044"/>
<stop offset="0.7136" stop-color="#66B848"/>
<stop offset="0.9081" stop-color="#6CC04A"/>
</linearGradient>
<linearGradient id="paint2_linear_4_14" x1="82.6078" y1="137.088" x2="144.173" y2="137.088" gradientUnits="userSpaceOnUse">
<stop offset="0.09192" stop-color="#6CC04A"/>
<stop offset="0.2864" stop-color="#66B848"/>
<stop offset="0.5968" stop-color="#54A044"/>
<stop offset="0.8624" stop-color="#41873F"/>
</linearGradient>
<linearGradient id="paint3_linear_4_14" x1="82.6083" y1="162.607" x2="144.173" y2="162.607" gradientUnits="userSpaceOnUse">
<stop offset="0.09192" stop-color="#6CC04A"/>
<stop offset="0.2864" stop-color="#66B848"/>
<stop offset="0.5968" stop-color="#54A044"/>
<stop offset="0.8624" stop-color="#41873F"/>
</linearGradient>
<linearGradient id="paint4_linear_4_14" x1="153.142" y1="113.554" x2="137.546" y2="195.281" gradientUnits="userSpaceOnUse">
<stop stop-color="#41873F"/>
<stop offset="0.3288" stop-color="#418B3D"/>
<stop offset="0.6352" stop-color="#419637"/>
<stop offset="0.9319" stop-color="#3FA92D"/>
<stop offset="1" stop-color="#3FAE2A"/>
</linearGradient>
<clipPath id="clip0_4_14">
<rect width="280" height="171.696" fill="white" transform="translate(10 64)"/>
</clipPath>
</defs>
</svg>
