<svg width="300" height="300" viewBox="0 0 300 300" fill="none" xmlns="http://www.w3.org/2000/svg">
<g clip-path="url(#clip0_4_26)">
<path d="M112.008 18.792C69.1608 21.9624 32.7358 24.8782 31.0232 25.2196C26.2215 26.0759 21.8533 29.3331 19.7993 33.62L18 37.392L18.1734 127.292L18.4281 217.192L21.1705 222.763C22.715 225.847 33.1694 240.247 44.5668 255.069C67.1068 284.292 68.7327 285.923 77.301 286.779C79.7886 287.034 98.4699 286.178 118.696 284.98C139.008 283.696 171.569 281.723 191.112 280.612C274.579 275.545 270.292 275.973 275.089 271.859C281.088 266.889 280.66 275.03 280.915 165.766C281.088 73.1233 281.001 67.0425 279.63 64.2135C278.004 61.043 275.089 58.8156 237.038 32.0754C211.587 14.2504 209.788 13.3074 198.385 13.134C193.676 12.9659 154.768 15.5348 112.008 18.792ZM208.33 30.5308C211.929 32.1567 238.241 50.4965 242.094 54.0138C243.124 55.0436 243.465 55.8999 242.95 56.4147C241.753 57.4444 78.9215 67.1292 74.2119 66.4409C72.0711 66.0995 68.9007 64.8151 67.1014 63.6119C59.644 58.5554 41.1362 43.386 41.1362 42.275C41.1362 39.3593 40.5346 39.3593 113.124 34.1348C127.009 33.1918 149.804 31.4792 163.689 30.3628C193.762 27.9619 202.764 28.0486 208.33 30.5308ZM260.093 77.4102C261.29 78.6079 262.32 80.922 262.661 83.1495C262.916 85.2089 263.09 123.601 262.916 168.334C262.661 245.119 262.575 249.921 261.117 252.148C260.261 253.519 258.548 254.977 257.258 255.405C253.665 256.863 83.0404 266.548 79.5285 265.518C77.9026 265.09 75.6697 263.719 74.472 262.521L72.4126 260.294L72.1578 177.51C71.9844 119.406 72.1579 93.696 72.8461 91.3818C73.361 89.6692 74.6454 87.6098 75.7619 86.9269C77.3064 85.8972 87.4194 85.0409 122.213 82.9869C146.639 81.6157 184.43 79.3016 206.114 78.0172C257.692 74.8413 257.524 74.8413 260.093 77.4102Z" fill="black"/>
<path d="M214.243 105.776C204.986 106.378 196.759 107.234 195.816 107.749C192.987 109.207 191.275 111.608 190.933 114.35C190.679 117.179 191.535 117.52 200.786 118.637L204.813 119.152V155.745C204.813 177.51 204.471 191.91 204.043 191.481C203.615 190.967 191.448 172.459 176.962 150.347C162.481 128.154 150.482 109.895 150.308 109.727C150.135 109.554 140.71 110.069 129.399 110.844C115.514 111.787 107.889 112.643 106.345 113.499C103.857 114.784 101.115 119.325 101.115 122.328C101.115 124.127 104.372 125.07 111.228 125.07H114.826V230.307L109 232.107C104.458 233.478 102.914 234.334 102.144 236.047C100.773 238.962 100.86 241.618 102.231 241.618C102.746 241.618 112.431 241.016 123.568 240.334C145.593 239.049 148.075 238.447 150.389 233.906C151.078 232.535 151.674 231.077 151.674 230.649C151.674 230.307 148.677 229.278 145.073 228.421C141.388 227.565 137.702 226.709 136.933 226.535C135.475 226.107 135.388 223.452 135.388 186.598V147.09L161.44 187.97C188.776 230.817 192.207 235.705 196.407 237.846C201.637 240.588 214.92 238.702 221.603 234.334L223.662 233.05L223.836 174.605L224.09 116.073L228.632 115.217C234.03 114.187 236.517 111.705 236.517 107.418C236.517 104.676 236.344 104.503 233.775 104.589C232.241 104.66 223.413 105.175 214.243 105.776Z" fill="black"/>
</g>
<defs>
<clipPath id="clip0_4_26">
<rect width="263.088" height="280" fill="white" transform="translate(18 10)"/>
</clipPath>
</defs>
</svg>
