<svg width="300" height="300" viewBox="0 0 300 300" fill="none" xmlns="http://www.w3.org/2000/svg">
<g clip-path="url(#clip0_4_22)">
<path d="M216.667 63.3333H230C233.733 63.3333 236.667 66.2666 236.667 70C236.667 73.7333 233.733 76.6666 230 76.6666H216.667C212.933 76.6666 210 73.7333 210 70C210 66.2666 212.933 63.3333 216.667 63.3333Z" fill="#56B3B4"/>
<path d="M16.6667 276.667H83.3333C87.0667 276.667 90 279.6 90 283.333C90 287.067 87.0667 290 83.3333 290H16.6667C12.9333 290 10 287.067 10 283.333C10 279.6 12.9333 276.667 16.6667 276.667Z" fill="#EA5E5E"/>
<path d="M176.667 170H216.667C220.4 170 223.333 172.933 223.333 176.667C223.333 180.4 220.4 183.333 216.667 183.333H176.667C172.933 183.333 170 180.4 170 176.667C170 172.933 172.933 170 176.667 170Z" fill="#BF85BF"/>
<path d="M96.6667 170H150C153.733 170 156.667 172.933 156.667 176.667C156.667 180.4 153.733 183.333 150 183.333H96.6667C92.9333 183.333 90 180.4 90 176.667C90 172.933 92.9333 170 96.6667 170Z" fill="#EA5E5E"/>
<path d="M16.6667 170H70C73.7333 170 76.6667 172.933 76.6667 176.667C76.6667 180.4 73.7333 183.333 70 183.333H16.6667C12.9333 183.333 10 180.4 10 176.667C10 172.933 12.9333 170 16.6667 170Z" fill="#56B3B4"/>
<path d="M16.6667 223.333H83.3333C87.0667 223.333 90 226.267 90 230C90 233.733 87.0667 236.667 83.3333 236.667H16.6667C12.9333 236.667 10 233.733 10 230C10 226.267 12.9333 223.333 16.6667 223.333Z" fill="#BF85BF"/>
<path d="M16.6667 116.667H83.3333C87.0667 116.667 90 119.6 90 123.333C90 127.067 87.0667 130 83.3333 130H16.6667C12.9333 130 10 127.067 10 123.333C10 119.6 12.9333 116.667 16.6667 116.667Z" fill="#BF85BF"/>
<path d="M83.3333 36.6667H216.667C220.4 36.6667 223.333 39.6 223.333 43.3334C223.333 47.0667 220.4 50 216.667 50H83.3333C79.6 50 76.6667 47.0667 76.6667 43.3334C76.6667 39.6 79.6 36.6667 83.3333 36.6667Z" fill="#F7BA3E"/>
<path d="M16.6667 36.6667H56.6667C60.4 36.6667 63.3333 39.6 63.3333 43.3334C63.3333 47.0667 60.4 50 56.6667 50H16.6667C12.9333 50 10 47.0667 10 43.3334C10 39.6 12.9333 36.6667 16.6667 36.6667Z" fill="#EA5E5E"/>
<path d="M70 250H83.3333C87.0667 250 90 252.933 90 256.667C90 260.4 87.0667 263.333 83.3333 263.333H70C66.2667 263.333 63.3333 260.4 63.3333 256.667C63.3333 252.933 66.2667 250 70 250Z" fill="#F7BA3E"/>
<path d="M70 90H83.3333C87.0667 90 90 92.9333 90 96.6667C90 100.4 87.0667 103.333 83.3333 103.333H70C66.2667 103.333 63.3333 100.4 63.3333 96.6667C63.3333 92.9333 66.2667 90 70 90Z" fill="#56B3B4"/>
<path d="M16.6667 250H43.3333C47.0667 250 50 252.933 50 256.667C50 260.4 47.0667 263.333 43.3333 263.333H16.6667C12.9333 263.333 10 260.4 10 256.667C10 252.933 12.9333 250 16.6667 250Z" fill="#56B3B4"/>
<path d="M16.6667 90H43.3333C47.0667 90 50 92.9333 50 96.6667C50 100.4 47.0667 103.333 43.3333 103.333H16.6667C12.9333 103.333 10 100.4 10 96.6667C10 92.9333 12.9333 90 16.6667 90Z" fill="#F7BA3E"/>
<path opacity="0.5" d="M190 250H203.333C207.067 250 210 252.933 210 256.667C210 260.4 207.067 263.333 203.333 263.333H190C186.267 263.333 183.333 260.4 183.333 256.667C183.333 252.933 186.267 250 190 250Z" fill="#D0D4D8"/>
<path opacity="0.5" d="M110 250H163.333C167.067 250 170 252.933 170 256.667C170 260.4 167.067 263.333 163.333 263.333H110C106.267 263.333 103.333 260.4 103.333 256.667C103.333 252.933 106.267 250 110 250Z" fill="#D0D4D8"/>
<path opacity="0.5" d="M230 250H283.333C287.067 250 290 252.933 290 256.667C290 260.4 287.067 263.333 283.333 263.333H230C226.267 263.333 223.333 260.4 223.333 256.667C223.333 252.933 226.267 250 230 250Z" fill="#D0D4D8"/>
<path d="M123.333 143.333H230C233.733 143.333 236.667 146.267 236.667 150C236.667 153.733 233.733 156.667 230 156.667H123.333C119.6 156.667 116.667 153.733 116.667 150C116.667 146.267 119.6 143.333 123.333 143.333Z" fill="#56B3B4"/>
<path d="M56.6667 143.333H96.6667C100.4 143.333 103.333 146.267 103.333 150C103.333 153.733 100.4 156.667 96.6667 156.667H56.6667C52.9333 156.667 50 153.733 50 150C50 146.267 52.9333 143.333 56.6667 143.333Z" fill="#F7BA3E"/>
<path d="M16.6667 143.333H30C33.7333 143.333 36.6667 146.267 36.6667 150C36.6667 153.733 33.7333 156.667 30 156.667H16.6667C12.9333 156.667 10 153.733 10 150C10 146.267 12.9333 143.333 16.6667 143.333Z" fill="#EA5E5E"/>
<path d="M136.667 63.3333H190C193.733 63.3333 196.667 66.2666 196.667 70C196.667 73.7333 193.733 76.6666 190 76.6666H136.667C132.933 76.6666 130 73.7333 130 70C130 66.2666 132.933 63.3333 136.667 63.3333Z" fill="#BF85BF"/>
<path d="M16.6667 63.3333H110C113.733 63.3333 116.667 66.2666 116.667 70C116.667 73.7333 113.733 76.6666 110 76.6666H16.6667C12.9333 76.6666 10 73.7333 10 70C10 66.2666 12.9333 63.3333 16.6667 63.3333Z" fill="#56B3B4"/>
<path d="M56.6667 196.667H176.667C180.4 196.667 183.333 199.6 183.333 203.333C183.333 207.067 180.4 210 176.667 210H56.6667C52.9333 210 50 207.067 50 203.333C50 199.6 52.9333 196.667 56.6667 196.667Z" fill="#F7BA3E"/>
<path d="M16.6667 196.667H30C33.7333 196.667 36.6667 199.6 36.6667 203.333C36.6667 207.067 33.7333 210 30 210H16.6667C12.9333 210 10 207.067 10 203.333C10 199.6 12.9333 196.667 16.6667 196.667Z" fill="#BF85BF"/>
<path d="M176.667 90H243.333C247.067 90 250 92.9333 250 96.6667C250 100.4 247.067 103.333 243.333 103.333H176.667C172.933 103.333 170 100.4 170 96.6667C170 92.9333 172.933 90 176.667 90Z" fill="#EA5E5E"/>
<path d="M176.667 116.667H243.333C247.067 116.667 250 119.6 250 123.333C250 127.067 247.067 130 243.333 130H176.667C172.933 130 170 127.067 170 123.333C170 119.6 172.933 116.667 176.667 116.667Z" fill="#F7BA3E"/>
<path d="M16.6667 10H176.667C180.4 10 183.333 12.9333 183.333 16.6667C183.333 20.4 180.4 23.3333 176.667 23.3333H16.6667C12.9333 23.3333 10 20.4 10 16.6667C10 12.9333 12.9333 10 16.6667 10Z" fill="#56B3B4"/>
<path opacity="0.5" d="M203.333 10H283.333C287.067 10 290 12.9333 290 16.6667C290 20.4 287.067 23.3333 283.333 23.3333H203.333C199.6 23.3333 196.667 20.4 196.667 16.6667C196.667 12.9333 199.6 10 203.333 10Z" fill="#D0D4D8"/>
<path opacity="0.5" d="M203.333 196.667H230C233.733 196.667 236.667 199.6 236.667 203.333C236.667 207.067 233.733 210 230 210H203.333C199.6 210 196.667 207.067 196.667 203.333C196.667 199.6 199.6 196.667 203.333 196.667Z" fill="#D0D4D8"/>
<path opacity="0.5" d="M256.667 196.667H283.333C287.067 196.667 290 199.6 290 203.333C290 207.067 287.067 210 283.333 210H256.667C252.933 210 250 207.067 250 203.333C250 199.6 252.933 196.667 256.667 196.667Z" fill="#D0D4D8"/>
<path opacity="0.5" d="M243.333 170H283.333C287.067 170 290 172.933 290 176.667C290 180.4 287.067 183.333 283.333 183.333H243.333C239.6 183.333 236.667 180.4 236.667 176.667C236.667 172.933 239.6 170 243.333 170Z" fill="#D0D4D8"/>
<path opacity="0.5" d="M243.333 36.6667H283.333C287.067 36.6667 290 39.6 290 43.3334C290 47.0667 287.067 50 283.333 50H243.333C239.6 50 236.667 47.0667 236.667 43.3334C236.667 39.6 239.6 36.6667 243.333 36.6667Z" fill="#D0D4D8"/>
<path opacity="0.5" d="M256.667 143.333H283.333C287.067 143.333 290 146.267 290 150C290 153.733 287.067 156.667 283.333 156.667H256.667C252.933 156.667 250 153.733 250 150C250 146.267 252.933 143.333 256.667 143.333Z" fill="#D0D4D8"/>
<path opacity="0.5" d="M256.667 63.3333H283.333C287.067 63.3333 290 66.2666 290 70C290 73.7333 287.067 76.6666 283.333 76.6666H256.667C252.933 76.6666 250 73.7333 250 70C250 66.2666 252.933 63.3333 256.667 63.3333Z" fill="#D0D4D8"/>
<path opacity="0.5" d="M270 90H283.333C287.067 90 290 92.9333 290 96.6667C290 100.4 287.067 103.333 283.333 103.333H270C266.267 103.333 263.333 100.4 263.333 96.6667C263.333 92.9333 266.267 90 270 90Z" fill="#D0D4D8"/>
<path opacity="0.5" d="M270 116.667H283.333C287.067 116.667 290 119.6 290 123.333C290 127.067 287.067 130 283.333 130H270C266.267 130 263.333 127.067 263.333 123.333C263.333 119.6 266.267 116.667 270 116.667Z" fill="#D0D4D8"/>
<path opacity="0.5" d="M163.333 223.333H283.333C287.067 223.333 290 226.267 290 230C290 233.733 287.067 236.667 283.333 236.667H163.333C159.6 236.667 156.667 233.733 156.667 230C156.667 226.267 159.6 223.333 163.333 223.333Z" fill="#D0D4D8"/>
<path opacity="0.5" d="M110 223.333H136.667C140.4 223.333 143.333 226.267 143.333 230C143.333 233.733 140.4 236.667 136.667 236.667H110C106.267 236.667 103.333 233.733 103.333 230C103.333 226.267 106.267 223.333 110 223.333Z" fill="#D0D4D8"/>
<path opacity="0.5" d="M216.667 276.667H283.333C287.067 276.667 290 279.6 290 283.333C290 287.067 287.067 290 283.333 290H216.667C212.933 290 210 287.067 210 283.333C210 279.6 212.933 276.667 216.667 276.667Z" fill="#D0D4D8"/>
<path opacity="0.5" d="M110 276.667H190C193.733 276.667 196.667 279.6 196.667 283.333C196.667 287.067 193.733 290 190 290H110C106.267 290 103.333 287.067 103.333 283.333C103.333 279.6 106.267 276.667 110 276.667Z" fill="#D0D4D8"/>
<path opacity="0.5" d="M110 90H150C153.733 90 156.667 92.9333 156.667 96.6667C156.667 100.4 153.733 103.333 150 103.333H110C106.267 103.333 103.333 100.4 103.333 96.6667C103.333 92.9333 106.267 90 110 90Z" fill="#D0D4D8"/>
<path opacity="0.5" d="M110 116.667H150C153.733 116.667 156.667 119.6 156.667 123.333C156.667 127.067 153.733 130 150 130H110C106.267 130 103.333 127.067 103.333 123.333C103.333 119.6 106.267 116.667 110 116.667Z" fill="#D0D4D8"/>
</g>
<defs>
<clipPath id="clip0_4_22">
<rect width="280" height="280" fill="white" transform="translate(10 10)"/>
</clipPath>
</defs>
</svg>
