<svg width="300" height="300" viewBox="0 0 300 300" fill="none" xmlns="http://www.w3.org/2000/svg">
<path d="M290 149.704C290 131.156 266.771 113.577 231.158 102.676C239.376 66.3779 235.724 37.499 219.629 28.2532C215.919 26.0844 211.582 25.0571 206.845 25.0571V37.7843C209.47 37.7843 211.582 38.298 213.351 39.2682C221.113 43.7199 224.48 60.6706 221.855 82.4725C221.227 87.8373 220.2 93.4876 218.944 99.2519C207.758 96.5124 195.544 94.4007 182.703 93.031C174.998 82.4725 167.008 72.8842 158.96 64.4945C177.566 47.2014 195.031 37.7273 206.902 37.7273V25C191.207 25 170.66 36.1863 149.886 55.5911C129.111 36.3005 108.565 25.2283 92.87 25.2283V37.9556C104.684 37.9556 122.205 47.3726 140.811 64.5516C132.821 72.9413 124.831 82.4725 117.24 93.031C104.342 94.4007 92.128 96.5124 80.9417 99.309C79.629 93.6017 78.6588 88.0656 77.9739 82.7578C75.2915 60.956 78.6017 44.0053 86.3066 39.4965C88.0188 38.4692 90.2446 38.0126 92.87 38.0126V25.2854C88.0758 25.2854 83.7383 26.3127 79.9715 28.4815C63.934 37.7273 60.3384 66.5491 68.6139 102.733C33.1146 113.691 10 131.213 10 149.704C10 168.253 33.2287 185.832 68.8422 196.733C60.6237 233.031 64.2764 261.91 80.371 271.156C84.0807 273.324 88.4183 274.352 93.2124 274.352C108.907 274.352 129.454 263.166 150.228 243.761C171.003 263.051 191.549 274.124 207.244 274.124C212.038 274.124 216.376 273.096 220.143 270.927C236.18 261.682 239.776 232.86 231.5 196.675C266.885 185.775 290 168.196 290 149.704ZM215.691 111.637C213.579 118.999 210.954 126.59 207.986 134.181C205.646 129.615 203.192 125.049 200.51 120.483C197.884 115.917 195.088 111.466 192.291 107.128C200.395 108.327 208.214 109.81 215.691 111.637ZM189.552 172.419C185.1 180.124 180.534 187.43 175.797 194.221C167.293 194.963 158.675 195.363 150 195.363C141.382 195.363 132.764 194.963 124.317 194.278C119.58 187.487 114.957 180.238 110.506 172.591C106.168 165.114 102.23 157.523 98.6343 149.876C102.173 142.228 106.168 134.58 110.448 127.104C114.9 119.399 119.466 112.093 124.203 105.302C132.707 104.56 141.325 104.16 150 104.16C158.618 104.16 167.236 104.56 175.683 105.245C180.42 112.036 185.043 119.285 189.495 126.932C193.832 134.409 197.77 142 201.366 149.647C197.77 157.295 193.832 164.943 189.552 172.419ZM207.986 165C211.068 172.648 213.693 180.296 215.862 187.715C208.386 189.541 200.51 191.082 192.348 192.281C195.145 187.886 197.941 183.378 200.567 178.755C203.192 174.189 205.646 169.566 207.986 165ZM150.114 225.897C144.806 220.418 139.499 214.311 134.248 207.634C139.384 207.862 144.635 208.033 149.943 208.033C155.308 208.033 160.616 207.919 165.809 207.634C160.673 214.311 155.365 220.418 150.114 225.897ZM107.652 192.281C99.5475 191.082 91.7285 189.598 84.2519 187.772C86.3636 180.41 88.989 172.819 91.9568 165.228C94.2968 169.794 96.7509 174.36 99.4333 178.926C102.116 183.492 104.855 187.943 107.652 192.281ZM149.829 73.512C155.137 78.991 160.444 85.0978 165.695 91.7754C160.559 91.5471 155.308 91.3759 150 91.3759C144.635 91.3759 139.327 91.49 134.134 91.7754C139.27 85.0978 144.578 78.991 149.829 73.512ZM107.595 107.128C104.798 111.523 102.002 116.031 99.3763 120.654C96.7509 125.22 94.2968 129.786 91.9568 134.352C88.8748 126.704 86.2495 119.056 84.0807 111.637C91.5573 109.868 99.4334 108.327 107.595 107.128ZM55.9438 178.583C35.7399 169.965 22.6702 158.665 22.6702 149.704C22.6702 140.744 35.7399 129.386 55.9438 120.826C60.852 118.714 66.2169 116.83 71.753 115.061C75.0061 126.247 79.2866 137.89 84.5944 149.819C79.3437 161.69 75.1203 173.276 71.9242 184.405C66.274 182.636 60.9091 180.695 55.9438 178.583ZM86.649 260.141C78.8871 255.689 75.5198 238.738 78.1451 216.936C78.7729 211.572 79.8003 205.921 81.0559 200.157C92.2422 202.896 104.456 205.008 117.297 206.378C125.002 216.936 132.992 226.525 141.04 234.914C122.434 252.208 104.969 261.682 93.0982 261.682C90.53 261.625 88.3612 261.111 86.649 260.141ZM222.026 216.651C224.709 238.453 221.398 255.404 213.693 259.912C211.981 260.94 209.755 261.396 207.13 261.396C195.316 261.396 177.795 251.979 159.189 234.8C167.179 226.411 175.169 216.879 182.76 206.321C195.658 204.951 207.872 202.839 219.058 200.043C220.371 205.807 221.398 211.343 222.026 216.651ZM243.999 178.583C239.091 180.695 233.726 182.578 228.19 184.348C224.937 173.161 220.656 161.519 215.349 149.59C220.599 137.719 224.823 126.133 228.019 115.004C233.669 116.773 239.034 118.714 244.056 120.826C264.26 129.444 277.33 140.744 277.33 149.704C277.273 158.665 264.203 170.022 243.999 178.583Z" fill="#61DAFB"/>
<path d="M149.943 175.787C164.348 175.787 176.025 164.109 176.025 149.704C176.025 135.3 164.348 123.622 149.943 123.622C135.538 123.622 123.861 135.3 123.861 149.704C123.861 164.109 135.538 175.787 149.943 175.787Z" fill="#61DAFB"/>
</svg>
