<svg width="300" height="300" viewBox="0 0 300 300" fill="none" xmlns="http://www.w3.org/2000/svg">
<g clip-path="url(#clip0_4_12)">
<path d="M250.953 165.641C241.164 165.696 232.688 168.047 225.578 171.547C222.953 166.352 220.328 161.813 219.891 158.422C219.399 154.485 218.797 152.078 219.399 147.376C220 142.672 222.734 136 222.734 135.453C222.679 134.961 222.132 132.555 216.5 132.5C210.868 132.445 206 133.594 205.453 135.07C204.906 136.547 203.813 139.938 203.102 143.438C202.117 148.578 191.836 166.789 185.984 176.359C184.07 172.641 182.43 169.359 182.101 166.734C181.609 162.797 181.007 160.39 181.609 155.688C182.211 150.984 184.945 144.313 184.945 143.766C184.891 143.273 184.344 140.867 178.712 140.812C173.078 140.758 168.212 141.906 167.665 143.383C167.118 144.859 166.516 148.359 165.313 151.75C164.164 155.141 150.492 185.547 146.938 193.477C145.133 197.523 143.547 200.75 142.398 202.938C141.25 205.125 142.344 203.102 142.234 203.32C141.25 205.18 140.703 206.219 140.703 206.219V206.274C139.938 207.641 139.117 208.953 138.734 208.953C138.46 208.953 137.914 205.289 138.843 200.258C140.867 189.703 145.789 173.243 145.734 172.641C145.734 172.368 146.664 169.469 142.562 167.993C138.57 166.516 137.148 168.977 136.82 168.977C136.492 168.977 136.218 169.852 136.218 169.852C136.218 169.852 140.648 151.314 127.742 151.314C119.648 151.314 108.492 160.118 102.968 168.157C99.4682 170.071 92.0307 174.118 84.1557 178.439C81.1479 180.079 78.0307 181.829 75.0776 183.415L74.4766 182.758C58.836 166.078 29.9063 154.266 31.1094 131.844C31.5469 123.695 34.3906 102.203 86.6724 76.1719C129.493 54.8438 163.782 60.6953 169.742 73.7109C178.219 92.3047 151.422 126.867 106.907 131.844C89.9537 133.758 81.0391 127.195 78.7974 124.734C76.4459 122.164 76.1178 122.055 75.2428 122.547C73.8209 123.313 74.6959 125.609 75.2428 126.977C76.5553 130.422 82.024 136.547 91.3209 139.609C99.4688 142.289 119.376 143.766 143.438 134.469C170.399 124.023 191.454 95.0391 185.274 70.8125C178.985 46.1484 138.079 38.0547 99.4146 51.7813C76.3906 59.9844 51.4531 72.7813 33.5156 89.5703C12.1875 109.477 8.7969 126.867 10.2188 134.086C15.1959 159.844 50.6875 176.633 64.9063 189.047C64.1953 189.429 63.5391 189.812 62.9375 190.141C55.8281 193.64 28.7578 207.805 21.9766 222.789C14.3203 239.742 23.1797 251.938 29.086 253.578C47.3516 258.664 66.0547 249.531 76.1719 234.492C86.2338 219.453 85.0313 199.93 80.3828 191.016L80.2182 190.688L85.7963 187.406C89.4063 185.273 92.961 183.305 96.0776 181.609C94.3281 186.367 93.0698 191.999 92.4141 200.203C91.6485 209.828 95.586 222.296 100.781 227.218C103.078 229.35 105.813 229.406 107.508 229.406C113.523 229.406 116.258 224.429 119.266 218.468C122.984 211.195 126.266 202.773 126.266 202.773C126.266 202.773 122.164 225.578 133.375 225.578C137.477 225.578 141.578 220.273 143.438 217.539V217.593C143.438 217.593 143.547 217.429 143.766 217.046C143.995 216.707 144.214 216.361 144.422 216.008V215.898C146.063 213.055 149.727 206.547 155.195 195.773C162.249 181.883 169.031 164.492 169.031 164.492C169.031 164.492 169.688 168.758 171.711 175.758C172.914 179.915 175.539 184.453 177.562 188.883C175.921 191.18 174.937 192.493 174.937 192.493L174.992 192.547C173.68 194.297 172.203 196.157 170.672 198.016C165.094 204.688 158.422 212.29 157.547 214.478C156.508 217.047 156.727 218.962 158.75 220.493C160.227 221.587 162.852 221.805 165.641 221.587C170.672 221.258 174.172 220.001 175.922 219.235C178.656 218.251 181.773 216.774 184.781 214.587C190.25 210.54 193.586 204.798 193.258 197.142C193.094 192.931 191.727 188.775 190.031 184.837C190.523 184.126 191.016 183.415 191.508 182.65C200.148 170.016 206.82 156.126 206.82 156.126C206.82 156.126 207.477 160.392 209.5 167.392C210.539 170.946 212.617 174.83 214.477 178.658C206.383 185.275 201.297 192.931 199.547 197.963C196.32 207.259 198.836 211.47 203.594 212.455C205.726 212.892 208.789 211.908 211.085 210.924C213.929 209.994 217.374 208.407 220.547 206.056C226.016 202.009 231.266 196.377 230.992 188.775C230.828 185.275 229.898 181.83 228.641 178.549C235.531 175.705 244.445 174.064 255.766 175.431C280.102 178.275 284.914 193.478 283.985 199.822C283.055 206.166 277.969 209.666 276.273 210.759C274.578 211.799 274.031 212.182 274.195 212.947C274.414 214.096 275.18 214.041 276.656 213.823C278.68 213.494 289.453 208.627 289.891 196.925C290.547 181.883 276.273 165.477 250.953 165.641ZM63.2656 228.914C55.2266 237.719 43.9063 241.055 39.0938 238.211C33.8985 235.203 35.9213 222.242 45.8203 212.891C51.836 207.203 59.6563 201.953 64.7969 198.727C65.9453 198.016 67.6953 196.977 69.7735 195.719C70.1016 195.501 70.3203 195.391 70.3203 195.391C70.7031 195.172 71.1406 194.898 71.5781 194.625C75.2422 207.969 71.7422 219.672 63.2656 228.914ZM122.055 188.938C119.266 195.773 113.359 213.328 109.805 212.344C106.742 211.523 104.883 198.234 109.203 185.109C111.39 178.492 116.039 170.617 118.773 167.554C123.203 162.632 128.015 160.992 129.219 163.015C130.641 165.641 123.805 184.672 122.055 188.938ZM170.563 212.125C169.359 212.727 168.266 213.164 167.773 212.837C167.391 212.618 168.265 211.797 168.265 211.797C168.265 211.797 174.335 205.29 176.742 202.282C178.109 200.532 179.749 198.509 181.499 196.212V196.868C181.5 204.742 173.953 209.992 170.563 212.125ZM207.968 203.594C207.093 202.938 207.203 200.914 210.156 194.57C211.305 192.055 213.929 187.844 218.468 183.852C219.015 185.492 219.344 187.078 219.289 188.555C219.234 198.398 212.234 202.063 207.968 203.594Z" fill="#CF649A"/>
</g>
<defs>
<clipPath id="clip0_4_12">
<rect width="280" height="210" fill="white" transform="translate(10 45)"/>
</clipPath>
</defs>
</svg>
