<svg width="300" height="300" viewBox="0 0 300 300" fill="none" xmlns="http://www.w3.org/2000/svg">
<mask id="mask0_4_23" style="mask-type:alpha" maskUnits="userSpaceOnUse" x="38" y="10" width="225" height="280">
<path d="M46.6839 268.011L38.0101 36.8925C37.7236 29.2596 43.5763 22.7907 51.1997 22.3143L247.782 10.0279C255.542 9.54291 262.225 15.4403 262.71 23.2C262.729 23.4924 262.738 23.7852 262.738 24.0781V275.922C262.738 283.697 256.435 290 248.66 290C248.449 290 248.239 289.995 248.028 289.986L60.12 281.546C52.8017 281.218 46.9586 275.331 46.6839 268.011Z" fill="white"/>
</mask>
<g mask="url(#mask0_4_23)">
<path d="M46.6839 268.011L38.0101 36.8925C37.7236 29.2596 43.5763 22.7907 51.1997 22.3143L247.782 10.0279C255.542 9.54291 262.225 15.4403 262.71 23.2C262.729 23.4924 262.738 23.7852 262.738 24.0781V275.922C262.738 283.697 256.435 290 248.66 290C248.449 290 248.239 289.995 248.028 289.986L60.12 281.546C52.8017 281.218 46.9586 275.331 46.6839 268.011Z" fill="#FF4785"/>
<path d="M203.952 44.4165L205.295 12.1212L232.291 10L233.454 43.305C233.495 44.4641 232.588 45.4366 231.429 45.477C230.933 45.4944 230.446 45.3352 230.056 45.0279L219.645 36.8267L207.319 46.1768C206.395 46.8777 205.078 46.6969 204.377 45.7728C204.082 45.3839 203.932 44.9043 203.952 44.4165ZM169.426 115.536C169.426 121.013 206.318 118.388 211.271 114.541C211.271 77.2433 191.258 57.6442 154.611 57.6442C117.964 57.6442 97.4314 77.5483 97.4314 107.404C97.4314 159.404 167.606 160.399 167.606 188.762C167.606 196.724 163.708 201.451 155.131 201.451C143.955 201.451 139.536 195.744 140.056 176.337C140.056 172.127 97.4314 170.815 96.1319 176.337C92.8227 223.366 122.123 236.931 155.651 236.931C188.139 236.931 213.61 219.614 213.61 188.265C213.61 132.533 142.395 134.026 142.395 106.409C142.395 95.2131 150.712 93.7203 155.651 93.7203C160.849 93.7203 170.205 94.6365 169.426 115.536Z" fill="white"/>
</g>
</svg>
