<svg width="300" height="300" viewBox="0 0 300 300" fill="none" xmlns="http://www.w3.org/2000/svg">
<path d="M150 66C112.666 66 89.3328 84.662 79.9983 121.982C94 103.32 110.334 96.3249 128.999 100.989C139.65 103.65 147.262 111.377 155.69 119.927C169.415 133.855 185.3 149.975 220.002 149.975C257.333 149.975 280.669 131.313 290 93.9895C276.002 112.651 259.668 119.651 240.999 114.987C230.352 112.326 222.74 104.598 214.312 96.0483C200.587 82.12 184.698 66 150 66ZM79.9983 149.975C42.6673 149.975 19.331 168.637 10 205.961C23.9983 187.299 40.3319 180.3 59.0009 184.968C69.6484 187.632 77.2602 195.356 85.6879 203.903C99.413 217.831 115.302 233.954 150 233.954C187.335 233.954 210.667 215.293 220.002 177.969C206 196.631 189.666 203.63 171.001 198.962C160.35 196.305 152.738 188.574 144.31 180.027C130.585 166.099 114.7 149.975 79.9983 149.975Z" fill="#06B6D4"/>
</svg>
