<svg width="300" height="300" viewBox="0 0 300 300" fill="none" xmlns="http://www.w3.org/2000/svg">
<path d="M231.459 100.664C236.017 78.5874 236.995 61.6546 234.049 49.3591C232.297 42.0464 229.094 36.0808 224.223 31.7767C219.08 27.2327 212.578 25.003 205.273 25.003C193.221 25.003 180.552 30.4929 167.013 40.9223C161.49 45.1763 155.759 50.3038 149.806 56.3076C149.332 55.6984 148.797 55.1236 148.2 54.5925C131.371 39.6115 117.203 30.3037 105.084 26.7149C97.8789 24.5809 91.1137 24.3776 84.9531 26.4487C78.4502 28.6348 73.2687 33.1538 69.613 39.4835C63.5798 49.9298 61.9887 63.6564 64.238 80.6051C65.1549 87.5136 66.7223 95.0389 68.9369 103.193C68.1014 103.293 67.2638 103.479 66.4347 103.753C45.0826 110.821 29.9631 118.422 20.8094 127.109C15.3632 132.277 11.8068 138.031 10.5211 144.401C9.16416 151.123 10.4873 157.866 14.1388 164.191C20.1607 174.623 31.2333 182.85 47.0077 189.366C53.3417 191.982 60.5082 194.352 68.5152 196.483C68.1498 197.307 67.8664 198.183 67.6768 199.101C63.1191 221.178 62.141 238.11 65.0871 250.406C66.8392 257.719 70.0426 263.684 74.9136 267.988C80.056 272.532 86.5578 274.762 93.8631 274.762C105.915 274.762 118.584 269.272 132.124 258.843C137.705 254.543 143.5 249.352 149.52 243.265C150.14 244.233 150.9 245.133 151.8 245.934C168.629 260.915 182.797 270.223 194.916 273.811C202.121 275.945 208.886 276.149 215.047 274.078C221.55 271.892 226.731 267.372 230.387 261.043C236.42 250.596 238.011 236.87 235.762 219.921C234.812 212.763 233.163 204.943 230.82 196.447C231.736 196.354 232.656 196.161 233.565 195.86C254.917 188.791 270.037 181.19 279.191 172.504C284.637 167.335 288.193 161.581 289.479 155.212C290.836 148.489 289.513 141.746 285.861 135.421C279.839 124.99 268.767 116.763 252.992 110.247C246.47 107.552 239.064 105.12 230.767 102.939C231.062 102.217 231.296 101.456 231.459 100.664Z" fill="#002C4B"/>
<path fill-rule="evenodd" clip-rule="evenodd" d="M128.48 104.579H171.528C174.167 104.579 176.605 105.991 177.919 108.28L199.482 145.859C200.785 148.13 200.785 150.922 199.482 153.193L177.919 190.772C176.605 193.062 174.167 194.474 171.528 194.474H128.48C125.84 194.474 123.402 193.062 122.089 190.772L100.525 153.193C99.2222 150.922 99.2222 148.13 100.525 145.859L122.089 108.28C123.402 105.991 125.84 104.579 128.48 104.579ZM166.193 113.828C168.834 113.828 171.272 115.242 172.586 117.533L188.821 145.862C190.122 148.132 190.122 150.921 188.821 153.19L172.586 181.519C171.272 183.811 168.834 185.224 166.193 185.224H133.815C131.174 185.224 128.735 183.811 127.422 181.519L111.186 153.19C109.886 150.921 109.886 148.132 111.186 145.862L127.422 117.533C128.735 115.242 131.174 113.828 133.815 113.828H166.193ZM160.435 123.945H139.573C136.935 123.945 134.498 125.356 133.184 127.643L122.721 145.856C121.415 148.129 121.415 150.924 122.721 153.197L133.184 171.409C134.498 173.697 136.935 175.107 139.573 175.107H160.435C163.073 175.107 165.51 173.697 166.824 171.409L177.287 153.197C178.592 150.924 178.592 148.129 177.287 145.856L166.824 127.643C165.51 125.356 163.073 123.945 160.435 123.945ZM154.892 133.628C157.528 133.628 159.963 135.037 161.278 137.322L166.186 145.851C167.496 148.126 167.496 150.926 166.186 153.201L161.278 161.731C159.963 164.016 157.528 165.424 154.892 165.424H145.116C142.48 165.424 140.045 164.016 138.73 161.731L133.821 153.201C132.512 150.926 132.512 148.126 133.821 145.851L138.73 137.322C140.045 135.037 142.48 133.628 145.116 133.628H154.892ZM150.006 143.167C147.73 143.167 145.63 144.379 144.493 146.347C143.356 148.314 143.356 150.738 144.493 152.706C145.63 154.673 147.73 155.885 150.002 155.885C152.278 155.885 154.378 154.673 155.515 152.706C156.651 150.738 156.651 148.314 155.515 146.347C154.378 144.379 152.278 143.167 150.006 143.167ZM98.4211 149.528H109.868Z" fill="#FFD94C"/>
<path fill-rule="evenodd" clip-rule="evenodd" d="M90.8462 169.948C92.7787 168.844 95.2317 169.531 96.325 171.483L97.0245 172.727C102.63 182.659 108.47 192.087 114.544 201.01C121.717 211.547 129.783 222.214 138.744 233.012C140.151 234.707 139.956 237.227 138.307 238.681L137.406 239.472C107.773 265.363 88.5143 270.534 79.6283 254.987C70.9366 239.779 74.0821 212.133 89.0648 172.048C89.3971 171.159 90.0275 170.416 90.8462 169.948ZM217.103 200.43C219.242 200.052 221.29 201.462 221.709 203.602L221.934 204.769C229.258 243.099 224.101 262.263 206.465 262.263C189.214 262.263 167.255 245.918 140.587 213.229C139.995 212.504 139.676 211.594 139.684 210.657C139.703 208.445 141.505 206.668 143.708 206.687L145.114 206.697C156.345 206.758 167.263 206.369 177.868 205.528C190.392 204.536 203.47 202.836 217.103 200.43ZM227.234 119.039C228.005 116.962 230.328 115.872 232.459 116.588L233.62 116.981C271.702 129.953 286.172 144.209 277.029 159.749C268.086 174.949 242.082 186.015 199.017 192.946C198.062 193.1 197.082 192.92 196.248 192.438C194.279 191.3 193.624 188.812 194.783 186.88L195.521 185.647C201.398 175.782 206.709 165.964 211.455 156.194C217.06 144.655 222.319 132.27 227.234 119.039ZM100.982 107.58C101.938 107.426 102.917 107.606 103.751 108.088C105.72 109.226 106.376 111.714 105.216 113.646L104.479 114.879C98.6017 124.744 93.2903 134.562 88.5443 144.333C82.9396 155.871 77.6801 168.256 72.7657 181.488C71.9944 183.564 69.6715 184.654 67.5403 183.938L66.379 183.546C28.2973 170.574 13.8277 156.317 22.9705 140.777C31.9135 125.577 57.9174 114.511 100.982 107.58ZM162.593 61.0542C192.226 35.1635 211.485 29.992 220.371 45.5397C229.063 60.7475 225.917 88.3936 210.935 128.478C210.602 129.367 209.972 130.11 209.153 130.578C207.221 131.682 204.768 130.995 203.674 129.043L202.975 127.799C197.369 117.867 191.53 108.44 185.456 99.5167C178.283 88.9793 170.216 78.3118 161.255 67.5141C159.848 65.8193 160.043 63.2993 161.692 61.8451L162.593 61.0542ZM95.008 36.7894C112.259 36.7894 134.218 53.134 160.886 85.8233C161.478 86.5483 161.797 87.4586 161.789 88.3956C161.77 90.6074 159.968 92.3847 157.765 92.3654L156.359 92.3554C145.128 92.2943 134.21 92.6839 123.605 93.5243C111.081 94.5168 98.0029 96.2163 84.3703 98.623C82.2306 99.0007 80.1831 97.5905 79.7644 95.4505L79.5387 94.2832C72.2151 55.954 77.3715 36.7894 95.008 36.7894Z" fill="#FF4154"/>
</svg>
