<svg width="300" height="300" viewBox="0 0 300 300" fill="none" xmlns="http://www.w3.org/2000/svg">
<g clip-path="url(#clip0_4_9)">
<path d="M10 150V10H290V290H10" fill="#007ACC"/>
<path d="M71.39 150.49V161.9H107.79V265.5H133.62V161.9H170.02V150.7C170.02 144.4 170.02 139.29 169.74 139.15C169.74 138.94 147.55 138.87 120.6 138.87L71.6 139.08V150.56L71.39 150.49ZM234.98 138.8C242.12 140.48 247.58 143.7 252.48 148.81C255.07 151.61 258.92 156.51 259.2 157.77C259.2 158.19 247.09 166.38 239.74 170.93C239.46 171.14 238.34 169.95 237.22 168.13C233.58 162.95 229.87 160.71 224.06 160.29C215.66 159.73 210.06 164.14 210.06 171.49C210.06 173.73 210.48 174.99 211.32 176.81C213.21 180.66 216.71 182.97 227.56 187.73C247.58 196.34 256.26 202.01 261.51 210.13C267.46 219.23 268.79 233.51 264.8 244.22C260.32 255.91 249.4 263.82 233.79 266.41C228.89 267.25 217.69 267.11 212.44 266.2C201.24 264.1 190.53 258.5 183.95 251.29C181.36 248.49 176.39 241 176.67 240.51L179.33 238.83L189.83 232.74L197.74 228.12L199.56 230.57C201.87 234.21 207.05 239.11 210.06 240.79C219.16 245.48 231.34 244.85 237.36 239.39C239.95 237.01 241.07 234.49 241.07 230.99C241.07 227.77 240.58 226.3 238.97 223.85C236.73 220.77 232.25 218.25 219.65 212.65C205.16 206.49 199 202.57 193.26 196.55C189.97 192.91 186.96 187.24 185.56 182.55C184.51 178.49 184.16 168.55 185.14 164.56C188.15 150.56 198.72 140.76 213.84 137.96C218.74 136.98 230.29 137.4 235.12 138.66L234.98 138.8Z" fill="white"/>
</g>
<defs>
<clipPath id="clip0_4_9">
<rect width="280" height="280" fill="white" transform="translate(10 10)"/>
</clipPath>
</defs>
</svg>
