<svg width="300" height="300" viewBox="0 0 300 300" fill="none" xmlns="http://www.w3.org/2000/svg">
<path d="M212.716 83.0647L189.801 117.954L192.144 133.312H170.238L167.057 112.609L187.369 81.7225H112.946L133.16 112.504L129.972 133.312H108.049L110.424 117.824L87.5742 83.0647V46.1663H106.113L115.142 59.873H133.6L142.621 46.1663H157.727L166.756 59.873H185.173L194.17 46.1663H212.716V83.0647ZM187.239 243.519L178.543 187.48L154.017 224.769H146.119L121.642 187.651L112.962 243.519H91.0477L104.356 156.78H127.596L150.031 190.921L172.475 156.78H195.845L209.153 243.519H187.239ZM265.396 10H34L34.2196 175.058C34.301 238.638 86.1832 290.089 150.08 290C213.977 289.919 265.729 238.305 265.64 174.733L265.396 10Z" fill="#EC3B33"/>
</svg>
