<svg width="300" height="300" viewBox="0 0 300 300" fill="none" xmlns="http://www.w3.org/2000/svg">
<path d="M235.867 71C219.48 71 204.661 77.7532 194.022 88.6065C183.396 77.7532 168.603 71 152.216 71C139.259 71 127.307 75.2743 117.593 82.4027L141.832 106.655C144.994 105.222 148.491 104.404 152.176 104.404C166.031 104.404 177.273 115.633 177.273 129.501L177.299 229.82H210.704L210.717 129.514V129.487H210.757C210.757 115.633 221.972 104.391 235.827 104.391H256.623L290 71H235.867Z" fill="#424B54"/>
<path d="M93.6243 129.509L93.6377 171.328C93.6377 185.182 82.4092 196.424 68.5544 196.424C54.6997 196.424 43.498 185.182 43.498 171.328V104.318L10 137.897V171.314C10 203.62 36.2892 229.815 68.5946 229.815C100.913 229.815 127.095 203.62 127.095 171.314L127.109 129.495C127.109 119.339 133.152 110.603 141.835 106.663L117.595 82.4107C103.097 93.0497 93.6243 110.16 93.6243 129.509Z" fill="#46A49C" fill-opacity="0.905882"/>
</svg>
