<svg width="300" height="300" viewBox="0 0 300 300" fill="none" xmlns="http://www.w3.org/2000/svg">
<path d="M289.073 51.4944L157.543 286.693C154.828 291.549 147.851 291.578 145.094 286.745L10.9564 51.5171C7.95347 46.251 12.4565 39.8724 18.424 40.939L150.095 64.4744C150.935 64.6246 151.795 64.6231 152.635 64.4701L281.552 40.9728C287.499 39.8888 292.024 46.218 289.073 51.4944Z" fill="url(#paint0_linear_4_13)"/>
<path d="M212.817 10.069L115.481 29.1417C113.881 29.4551 112.696 30.8109 112.6 32.4379L106.612 133.562C106.471 135.944 108.659 137.793 110.983 137.257L138.083 131.003C140.619 130.418 142.91 132.651 142.389 135.201L134.337 174.627C133.796 177.28 136.287 179.549 138.878 178.762L155.616 173.677C158.211 172.889 160.704 175.164 160.155 177.82L147.36 239.749C146.56 243.623 151.712 245.735 153.861 242.414L155.297 240.196L234.612 81.9092C235.94 79.2589 233.649 76.2369 230.739 76.7987L202.844 82.1823C200.223 82.6877 197.992 80.2465 198.732 77.6818L216.938 14.5672C217.679 11.9982 215.441 9.55489 212.817 10.069Z" fill="url(#paint1_linear_4_13)"/>
<defs>
<linearGradient id="paint0_linear_4_13" x1="7.68133" y1="32.5334" x2="171.381" y2="254.85" gradientUnits="userSpaceOnUse">
<stop stop-color="#41D1FF"/>
<stop offset="1" stop-color="#BD34FE"/>
</linearGradient>
<linearGradient id="paint1_linear_4_13" x1="142.537" y1="15.2472" x2="172.15" y2="218.385" gradientUnits="userSpaceOnUse">
<stop stop-color="#FFEA83"/>
<stop offset="0.0833333" stop-color="#FFDD35"/>
<stop offset="1" stop-color="#FFA800"/>
</linearGradient>
</defs>
</svg>
