<svg width="300" height="300" viewBox="0 0 300 300" fill="none" xmlns="http://www.w3.org/2000/svg">
<path d="M220.126 99.4467L153.188 196.23C152.478 197.257 151.452 198.025 150.264 198.42C149.077 198.814 147.793 198.811 146.609 198.414C145.424 198.016 144.402 197.244 143.699 196.216C142.995 195.186 142.648 193.956 142.711 192.713L145.39 139.278L102.141 130.106C101.216 129.91 100.355 129.49 99.6335 128.884C98.9116 128.277 98.3513 127.503 98.0023 126.629C97.6534 125.754 97.5265 124.808 97.6328 123.873C97.7391 122.938 98.0753 122.043 98.6117 121.267L165.551 24.4832C166.261 23.4565 167.287 22.688 168.474 22.294C169.662 21.9 170.945 21.902 172.13 22.3001C173.315 22.698 174.337 23.47 175.04 24.4991C175.744 25.5281 176.09 26.7578 176.027 28.0018L173.348 81.437L216.597 90.6084C217.521 90.8042 218.383 91.2241 219.105 91.8306C219.828 92.4372 220.387 93.2118 220.735 94.0859C221.085 94.96 221.211 95.9066 221.106 96.8416C221 97.7768 220.663 98.6711 220.126 99.4467Z" fill="#FCC72B"/>
<path d="M150.027 277.431C148.246 277.433 146.483 277.085 144.838 276.403C143.194 275.722 141.699 274.721 140.442 273.462L77.1931 210.217C74.6629 207.674 73.2446 204.23 73.2492 200.643C73.254 197.055 74.6814 193.613 77.2187 191.077C79.7558 188.54 83.1957 187.112 86.7837 187.106C90.372 187.102 93.8158 188.519 96.3599 191.05L150.027 244.71L266.941 127.802C269.489 125.295 272.925 123.896 276.5 123.91C280.077 123.925 283.502 125.352 286.029 127.88C288.557 130.408 289.985 133.833 290 137.408C290.013 140.984 288.614 144.42 286.106 146.969L159.609 273.462C158.352 274.723 156.858 275.722 155.214 276.403C153.57 277.085 151.807 277.433 150.027 277.431Z" fill="#729B1B"/>
<path d="M149.972 277.431C151.753 277.433 153.516 277.085 155.161 276.403C156.806 275.722 158.3 274.721 159.557 273.462L222.806 210.217C225.336 207.674 226.755 204.23 226.75 200.643C226.746 197.055 225.318 193.613 222.78 191.077C220.243 188.54 216.803 187.112 213.215 187.106C209.627 187.102 206.184 188.519 203.639 191.05L149.972 244.71L33.0587 127.802C30.5099 125.295 27.0735 123.896 23.4982 123.91C19.9228 123.925 16.4979 125.352 13.9697 127.88C11.4415 130.408 10.0147 133.833 10.0001 137.408C9.98555 140.984 11.3844 144.42 13.892 146.969L140.39 273.462C141.647 274.723 143.141 275.722 144.785 276.403C146.43 277.085 148.192 277.433 149.972 277.431Z" fill="#729B1B" fill-opacity="0.5"/>
</svg>
