<svg width="300" height="300" viewBox="0 0 300 300" fill="none" xmlns="http://www.w3.org/2000/svg">
<path d="M18.0021 111.291C18.0021 111.291 11.3739 106.513 19.3277 100.133L37.8591 83.5627C37.8591 83.5627 43.1617 77.984 48.768 82.8447L219.776 212.316V274.4C219.776 274.4 219.693 284.149 207.182 283.072L18.0021 111.291Z" fill="#2489CA"/>
<path d="M62.0796 151.309L18.0021 191.382C18.0021 191.382 13.4728 194.751 18.0021 200.772L38.4667 219.386C38.4667 219.386 43.3273 224.605 50.5079 218.668L97.2367 183.234L62.0796 151.309Z" fill="#1070B3"/>
<path d="M139.464 151.64L220.3 89.9148L219.776 28.162C219.776 28.162 216.323 14.6847 204.807 21.6995L97.2368 119.604L139.464 151.64Z" fill="#0877B9"/>
<path d="M207.182 283.155C211.877 287.96 217.566 286.386 217.566 286.386L280.562 255.344C288.626 249.848 287.494 243.026 287.494 243.026V57.6575C287.494 49.5104 279.153 46.6934 279.153 46.6934L224.553 20.3739C212.623 13 204.807 21.6995 204.807 21.6995C204.807 21.6995 214.86 14.4637 219.776 28.162V273.267C219.776 274.952 219.417 276.609 218.699 278.101C217.262 281 214.142 283.707 206.657 282.575L207.182 283.155Z" fill="#3C99D4"/>
</svg>
