<svg width="300" height="300" viewBox="0 0 300 300" fill="none" xmlns="http://www.w3.org/2000/svg">
<g clip-path="url(#clip0_4_13)">
<path d="M150 10L273.737 80V220L150 290L26.2633 220V80L150 10Z" fill="white"/>
<path d="M251.64 215.17L154.083 270.353V227.373L214.867 193.937L251.64 215.17ZM258.313 209.127V93.72L222.613 114.323V188.5L258.313 209.127ZM47.9634 215.17L145.52 270.353V227.373L84.7367 193.937L47.9634 215.17ZM41.29 209.127V93.72L76.99 114.323V188.5L41.29 209.127ZM45.4667 86.2533L145.52 29.6467V71.2033L81.4234 106.46L80.9334 106.74L45.4667 86.2533ZM254.137 86.2533L154.083 29.6467V71.2033L218.18 106.46L218.67 106.74L254.137 86.2533Z" fill="#8ED6FB"/>
<path d="M145.52 217.597L85.5533 184.627V119.293L145.52 153.92V217.597ZM154.083 217.597L214.05 184.627V119.293L154.083 153.92V217.597ZM89.6134 111.733L149.813 78.6234L210.013 111.733L149.813 146.5L89.6134 111.733Z" fill="#1C78C0"/>
</g>
<defs>
<clipPath id="clip0_4_13">
<rect width="280" height="280" fill="white" transform="translate(10 10)"/>
</clipPath>
</defs>
</svg>
